<?xml version="1.0" standalone="no"?>
<!DOCTYPE svg PUBLIC "-//W3C//DTD SVG 1.1//EN" "http://www.w3.org/Graphics/SVG/1.1/DTD/svg11.dtd" >
<svg xmlns="http://www.w3.org/2000/svg">
<metadata>
This is a custom SVG webfont generated by Font Squirrel.
Copyright   : Copyright 1998 by URW Design  Development GmbH
Foundry     : by URW Design  Development GmbH
</metadata>
<defs>
<font id="CorporateSItalic" horiz-adv-x="1069" >
<font-face units-per-em="2048" ascent="1638" descent="-410" />
<missing-glyph horiz-adv-x="485" />
<glyph unicode=" "  horiz-adv-x="485" />
<glyph unicode="&#x09;" horiz-adv-x="485" />
<glyph unicode="&#xa0;" horiz-adv-x="485" />
<glyph unicode="!" horiz-adv-x="516" d="M49 72q0 57 41 99t96 42q41 0 69 -27.5t28 -70.5q0 -27 -11.5 -51.5t-30 -44t-42 -31t-49.5 -11.5q-43 0 -72 27t-29 68zM176 383l223 956h152l-262 -956h-113z" />
<glyph unicode="&#x22;" horiz-adv-x="720" d="M254 817l113 549h153l-160 -549h-106zM535 817l114 549h152l-160 -549h-106z" />
<glyph unicode="#" horiz-adv-x="1228" d="M115 434l18 113h234l47 297h-234l17 112h233l66 410h129l-66 -410h305l66 410h129l-66 -410h236l-19 -112h-235l-47 -297h235l-18 -113h-234l-69 -434h-129l69 434h-305l-69 -434h-129l69 434h-233zM496 547h303l47 297h-303z" />
<glyph unicode="$" d="M66 330q0 20 1 38.5t5 49.5h147q-4 -25 -4 -39v-31q0 -102 47 -157.5t152 -77.5l118 557l-30 20q-39 25 -64.5 42.5t-43 30.5t-31 26.5t-27.5 29.5q-72 84 -72 203q0 82 30 148.5t85 115.5t133 77t174 30l27 129h90l-29 -136q143 -23 217 -102.5t74 -212.5q0 -8 -1 -24.5 t-3 -32.5h-146q2 12 3 20v17q0 172 -170 206l-101 -471q72 -43 116 -72.5t75 -58.5q55 -53 81.5 -112.5t26.5 -136.5q0 -109 -52 -205.5t-140 -153.5q-111 -72 -281 -72l-31 -145h-90l33 152q-158 27 -238.5 115t-80.5 233zM418 1042q0 -63 33.5 -109t115.5 -97l90 424 q-111 -10 -175 -69t-64 -149zM502 104q129 10 206.5 84t77.5 191q0 72 -38.5 126t-135.5 118z" />
<glyph unicode="%" horiz-adv-x="1284" d="M90 0l1075 1366h129l-1075 -1366h-129zM180 956q0 86 26.5 162t72 133.5t105.5 91t128 33.5q98 0 154.5 -64.5t56.5 -176.5q0 -82 -28.5 -164t-82.5 -144q-90 -106 -219 -106q-98 0 -155.5 63t-57.5 172zM299 965q0 -68 26.5 -105t77.5 -37q39 0 76 25.5t64.5 69t44 99.5 t16.5 118q0 139 -104 139q-41 0 -77 -25.5t-63.5 -67.5t-44 -98.5t-16.5 -117.5zM670 225q0 86 26.5 162t71.5 133.5t105.5 91t127.5 33.5q98 0 154.5 -64.5t56.5 -177.5q0 -84 -26.5 -158.5t-71.5 -132t-104.5 -90t-126.5 -32.5q-98 0 -155.5 63t-57.5 172zM788 236 q0 -141 105 -142q41 0 77 25.5t63.5 68.5t44 99.5t16.5 118.5q0 137 -105 137q-41 0 -76.5 -25.5t-63.5 -67.5t-44.5 -97.5t-16.5 -116.5z" />
<glyph unicode="&#x26;" horiz-adv-x="1142" d="M39 289q0 199 182 348q35 29 77 56.5t114 68.5q-27 57 -42.5 97t-24.5 71t-12 56.5t-3 55.5q0 68 23.5 124.5t66.5 98.5t101.5 64.5t127.5 22.5q117 0 183.5 -58.5t66.5 -156.5q0 -147 -129 -271q-12 -12 -27.5 -24.5t-37 -27.5t-51 -36.5t-74.5 -52.5l176 -387 q86 109 121 291h124q-25 -129 -69.5 -226.5t-120.5 -183.5l98 -219h-157l-52 119q-41 -37 -78.5 -61.5t-76.5 -40t-80 -22.5t-90 -7q-158 0 -247 80t-89 221zM178 301q0 -90 55.5 -141t153.5 -51q74 0 137.5 26.5t128.5 85.5l-192 432q-152 -82 -217.5 -164t-65.5 -188z M471 1055q0 -41 17.5 -100.5t48.5 -118.5q127 80 179 145.5t52 140.5q0 53 -33 83t-90 30q-76 0 -125 -51t-49 -129z" />
<glyph unicode="'" horiz-adv-x="512" d="M291 817l112 549h154l-160 -549h-106z" />
<glyph unicode="(" horiz-adv-x="575" d="M92 139q0 178 40 356.5t113.5 340t177 299t228.5 233.5h115q-115 -102 -201 -219t-155 -264q-186 -385 -187 -783q0 -66 3 -121t11.5 -112t22.5 -121.5t35 -148.5h-94q-59 143 -84 269t-25 271z" />
<glyph unicode=")" horiz-adv-x="577" d="M-180 -401q119 109 202.5 223.5t155.5 259.5q92 197 138 389.5t46 392.5q0 63 -3 119.5t-11 115t-22.5 123t-34.5 146.5h94q57 -141 83 -267t26 -274q0 -178 -40 -354t-113 -337t-176.5 -299t-230.5 -238h-114z" />
<glyph unicode="*" horiz-adv-x="1024" d="M360 1198l54 84l204 -129l60 238l96 -25l-59 -238l241 19l9 -100l-244 -17l90 -227l-90 -37l-92 227l-187 -157l-63 75l186 158z" />
<glyph unicode="+" d="M152 635v106h380v396h113v-396h381v-106h-381v-397h-113v397h-380z" />
<glyph unicode="," horiz-adv-x="514" d="M-82 -285q82 63 142.5 138t84.5 143h-22q-35 0 -58.5 23.5t-23.5 58.5q0 53 42 95t95 42q47 0 77 -30.5t30 -82.5q0 -82 -64.5 -184t-181.5 -203h-121z" />
<glyph unicode="-" horiz-adv-x="544" d="M-2 459l29 112h544l-28 -112h-545z" />
<glyph unicode="." horiz-adv-x="514" d="M47 72q0 57 41 99t96 42q41 0 69 -27.5t28 -70.5q0 -27 -11.5 -51.5t-30 -44t-42 -31t-50.5 -11.5q-43 0 -71.5 27t-28.5 68z" />
<glyph unicode="/" horiz-adv-x="1181" d="M-68 -305l1192 1671h156l-1190 -1671h-158z" />
<glyph unicode="0" d="M115 391q0 92 16 193.5t45 199t69 186.5t87 156q160 227 391 228q76 0 139.5 -30t108.5 -83q82 -100 82 -293q0 -92 -14.5 -189t-40 -190.5t-63.5 -179.5t-85 -158q-84 -129 -178 -189t-217 -60q-162 0 -251 106t-89 303zM266 377q0 -129 51.5 -198.5t145.5 -69.5 q96 0 170 68.5t143 217.5q29 63 52.5 135t40 147t25.5 148.5t9 139.5q0 127 -48 194.5t-140 67.5q-96 0 -171 -65.5t-145 -211.5q-29 -61 -53 -135t-41.5 -149.5t-28 -150.5t-10.5 -138z" />
<glyph unicode="1" d="M383 0l262 1053l-235 -15l24 99q125 4 202 52t124 152h98l-334 -1341h-141z" />
<glyph unicode="2" d="M55 0l29 117l283 282q127 127 200.5 202t114.5 118t61.5 65.5t42.5 46.5q66 78 92.5 129.5t26.5 104.5q0 70 -52 113t-136 43q-219 0 -287 -275h-135q35 199 147.5 303.5t288.5 104.5q72 0 131.5 -19.5t102.5 -55.5t66.5 -86t23.5 -112q0 -76 -36 -147.5t-124 -171.5 q-27 -31 -49.5 -55.5t-61.5 -64.5t-103.5 -105.5t-176.5 -176.5l-221 -225h565l-33 -135h-760z" />
<glyph unicode="3" d="M86 311v29q0 14 4 39h139v-35q0 -113 58.5 -172t169.5 -59q68 0 126 25.5t101 70.5t68.5 105.5t25.5 127.5q0 72 -35.5 122t-99.5 69q-31 10 -58.5 12t-80.5 2h-25l33 129q16 -2 33.5 -3t25.5 -1q66 0 123.5 20.5t99.5 57.5t66.5 87t24.5 107q0 78 -54.5 127.5 t-144.5 49.5q-98 0 -159.5 -56.5t-96.5 -175.5h-139q90 365 414 365q74 0 135 -21.5t105 -61.5t67.5 -94.5t23.5 -121.5q0 -127 -72.5 -218.5t-207.5 -131.5q174 -68 174 -263q0 -96 -38 -180t-102.5 -146.5t-152.5 -98t-188 -35.5q-166 0 -264.5 88.5t-98.5 240.5z" />
<glyph unicode="4" d="M49 328l29 114l737 904h180l-221 -887h211l-33 -131h-207l-83 -336h-148l84 336h-549zM236 459h399l196 745z" />
<glyph unicode="5" d="M115 270l2 52h141q0 -53 7 -84t26 -56q23 -33 65.5 -51t94.5 -18q70 0 134 36.5t113.5 98t78 142.5t28.5 171q0 98 -53.5 154.5t-145.5 56.5q-72 0 -132 -35t-120 -108l-123 14l256 688h600l-51 -133h-461l-147 -377q57 43 109.5 61.5t117.5 18.5q141 0 221 -86t80 -240 q0 -123 -41 -231t-111.5 -188t-165.5 -127t-202 -47q-145 0 -233 78.5t-88 209.5z" />
<glyph unicode="6" d="M139 328q0 162 84 324.5t266 359.5q86 92 188.5 186t194.5 164h170q-72 -55 -144.5 -119.5t-139 -131.5t-126 -132.5t-102.5 -122.5q41 23 73 32t71 9q63 0 116.5 -24.5t91.5 -68.5t58.5 -106.5t20.5 -136.5q0 -113 -42 -224.5t-118 -197.5q-135 -158 -332 -157 q-154 0 -242 93t-88 253zM291 326q0 -100 50 -158.5t136 -58.5q63 0 124 36.5t108 99t74.5 142.5t27.5 166q0 100 -51 160.5t-137 60.5q-143 0 -244 -156q-41 -63 -64.5 -141.5t-23.5 -150.5z" />
<glyph unicode="7" d="M115 0l880 1196l-637 -6l31 141h805l-27 -117l-884 -1214h-168z" />
<glyph unicode="8" d="M111 301q0 141 77.5 247.5t219.5 160.5q-59 53 -84 106t-25 127q0 84 33 159t90 131t134 89t163 33q70 0 128 -21.5t99 -60.5t63.5 -93.5t22.5 -121.5q0 -129 -66.5 -226.5t-185.5 -138.5q137 -78 138 -252q0 -96 -35 -180t-96.5 -145.5t-144.5 -97t-177 -35.5 q-80 0 -145.5 22.5t-111.5 64.5t-71.5 101t-25.5 131zM260 309q0 -92 56.5 -147.5t148.5 -55.5q61 0 116.5 27t96.5 72t64.5 106.5t23.5 130.5q0 86 -56.5 140.5t-146.5 54.5q-61 0 -116.5 -26.5t-96.5 -71.5t-65.5 -104.5t-24.5 -125.5zM449 936q0 -78 49 -128t127 -50 q51 0 98 23.5t82 63.5t55.5 93t20.5 113q0 80 -46.5 129t-123.5 49q-53 0 -100.5 -23.5t-83 -63.5t-57 -93.5t-21.5 -112.5z" />
<glyph unicode="9" d="M127 -27q70 55 142.5 119t140 130.5t126 132t101.5 124.5q-39 -23 -70.5 -32t-72.5 -9q-63 0 -115.5 24.5t-90.5 68.5t-58.5 106.5t-20.5 136.5q0 113 42 224.5t118 197.5q139 158 331 158q154 0 242 -93.5t88 -252.5q0 -82 -20.5 -162t-62.5 -163t-108.5 -172 t-158.5 -187q-43 -47 -92 -94.5t-99.5 -93.5t-99.5 -88t-92 -75h-170zM358 782q0 -100 51.5 -160.5t137.5 -60.5q141 0 244 156q41 63 64.5 142t23.5 151q0 100 -50.5 158.5t-136.5 58.5q-66 0 -126 -37t-106 -99.5t-74 -142.5t-28 -166z" />
<glyph unicode=":" horiz-adv-x="514" d="M47 72q0 57 41 99t96 42q41 0 69 -27.5t28 -70.5q0 -27 -11.5 -51.5t-30 -44t-42 -31t-50.5 -11.5q-43 0 -71.5 27t-28.5 68zM242 848q0 57 41 100t96 43q41 0 68.5 -27.5t27.5 -70.5q0 -55 -40 -97t-93 -42q-43 0 -71.5 26.5t-28.5 67.5z" />
<glyph unicode=";" horiz-adv-x="514" d="M-82 -285q82 63 142.5 138t84.5 143h-22q-35 0 -58.5 23.5t-23.5 58.5q0 53 42 95t95 42q47 0 77 -30.5t30 -82.5q0 -82 -64.5 -184t-181.5 -203h-121zM240 848q0 57 41 100t96 43q41 0 68.5 -27.5t27.5 -70.5q0 -55 -40 -97t-93 -42q-43 0 -71.5 26.5t-28.5 67.5z" />
<glyph unicode="&#x37e;" horiz-adv-x="514" d="M-82 -285q82 63 142.5 138t84.5 143h-22q-35 0 -58.5 23.5t-23.5 58.5q0 53 42 95t95 42q47 0 77 -30.5t30 -82.5q0 -82 -64.5 -184t-181.5 -203h-121zM240 848q0 57 41 100t96 43q41 0 68.5 -27.5t27.5 -70.5q0 -55 -40 -97t-93 -42q-43 0 -71.5 26.5t-28.5 67.5z" />
<glyph unicode="&#x3c;" horiz-adv-x="1024" d="M88 625v131l887 415v-149l-727 -332l727 -332v-149z" />
<glyph unicode="=" d="M152 496v110h874v-110h-874zM152 768v111h874v-111h-874z" />
<glyph unicode="&#x3e;" horiz-adv-x="1024" d="M90 209v149l727 332l-727 332v147l887 -415v-129z" />
<glyph unicode="?" horiz-adv-x="829" d="M203 72q0 57 41 99t96 42q41 0 68.5 -27.5t27.5 -70.5q0 -27 -11 -51.5t-29.5 -44t-42 -31t-50.5 -11.5q-43 0 -71.5 27t-28.5 68zM227 1020q35 164 132.5 249t248.5 85q131 0 208 -65.5t77 -176.5q0 -43 -10.5 -79t-35 -72.5t-67.5 -78.5t-106 -98q-70 -55 -111 -94 t-65.5 -79t-38 -91t-27.5 -133h-139q18 92 33.5 151.5t39 105.5t60.5 85t96 92q43 37 68.5 59.5t41 37t25 24.5t21.5 25q53 63 53 133q0 53 -40 85t-105 32q-88 0 -141.5 -46.5t-84.5 -150.5h-133z" />
<glyph unicode="@" horiz-adv-x="1501" d="M133 682q0 152 54.5 282t149.5 225t226 148.5t285 53.5q143 0 262 -45.5t205 -126t134 -192.5t48 -245q0 -98 -27.5 -186t-73.5 -155.5t-106.5 -107.5t-128.5 -40q-61 0 -101 38t-48 103q-94 -145 -254 -145q-63 0 -116.5 24.5t-92.5 68.5t-60.5 104.5t-21.5 134.5 q0 86 28.5 161.5t78 132t115 89t138.5 32.5q164 0 228 -157l24 133h109l-84 -434q-6 -31 -10 -57.5t-4 -39.5q0 -45 21.5 -71.5t55.5 -26.5q43 0 84 33t73 88t51.5 126.5t19.5 149.5q0 115 -40 209t-112 162t-172 105.5t-223 37.5q-131 0 -241.5 -46t-191.5 -128 t-126 -194.5t-45 -245.5q0 -125 42 -236.5t120 -195.5q166 -174 462 -174q119 0 220.5 22.5t209.5 71.5l29 -96q-205 -96 -457 -97q-166 0 -301 49.5t-233 147.5q-96 94 -149.5 228.5t-53.5 281.5zM590 618q0 -104 50 -165.5t138 -61.5q51 0 94 24.5t75 68.5t49.5 104.5 t17.5 132.5q0 98 -47 152.5t-131 54.5q-51 0 -96.5 -24.5t-78 -65.5t-52 -99t-19.5 -121z" />
<glyph unicode="A" horiz-adv-x="1134" d="M-70 0l799 1374h137l107 -1374h-154l-22 362h-500l-207 -362h-160zM371 494h420l-19 313q-4 51 -7 148.5t-9 244.5q-41 -82 -69 -136t-50.5 -96t-42 -79t-45.5 -84z" />
<glyph unicode="B" horiz-adv-x="1110" d="M57 0l340 1366h236q119 0 191.5 -8t119.5 -29q152 -61 152 -239q0 -137 -80 -233.5t-228 -137.5q113 -35 164.5 -98.5t51.5 -165.5q0 -66 -18.5 -126.5t-53.5 -112.5t-83 -94t-106 -67q-37 -16 -76.5 -26.5t-89 -16.5t-113 -9t-145.5 -3h-262zM238 129h135q59 0 102 2 t77 6t59.5 11.5t52.5 19.5q84 37 132 115.5t48 175.5q0 135 -127 176q-31 10 -82 15t-117 5h-149zM399 784h131q98 0 158 10.5t105 32.5q68 37 108.5 104.5t40.5 141.5q0 117 -108 148q-31 10 -73 13t-130 3h-119z" />
<glyph unicode="C" horiz-adv-x="1245" d="M135 479q0 96 17.5 192.5t49 186.5t78 172t103.5 148q96 111 205.5 163t245.5 52q184 0 286.5 -97.5t102.5 -271.5v-37h-148q0 272 -252 273q-229 0 -389 -271q-63 -111 -101 -248t-38 -262q0 -178 79 -275.5t220 -97.5t247.5 93.5t157.5 265.5h154q-63 -240 -207.5 -366 t-355.5 -126q-219 0 -337 131t-118 375z" />
<glyph unicode="D" horiz-adv-x="1271" d="M57 0l340 1366h254q158 0 251 -18.5t161 -63.5q182 -121 182 -403q0 -102 -19.5 -201.5t-56 -190t-89 -170t-119.5 -143.5q-55 -51 -112.5 -85t-131.5 -54.5t-170 -28.5t-228 -8h-262zM240 133h157q92 0 164 9.5t129.5 31t104.5 56t90 83.5q45 53 83 120t63.5 140.5 t39.5 153.5t14 158q0 109 -42 189.5t-115 117.5q-45 23 -110.5 32t-170.5 9h-135z" />
<glyph unicode="E" horiz-adv-x="1026" d="M57 0l340 1366h725l-32 -133h-578l-113 -459h541l-33 -133h-542l-125 -508h612l-35 -133h-760z" />
<glyph unicode="F" horiz-adv-x="976" d="M57 0l340 1366h727l-32 -133h-580l-113 -459h537l-33 -133h-538l-160 -641h-148z" />
<glyph unicode="G" horiz-adv-x="1265" d="M135 469q0 201 65.5 388t182.5 321q96 111 206.5 163t248.5 52q123 0 212 -45t134 -131q23 -43 33 -96.5t10 -133.5h-148q0 272 -250 273q-227 0 -383 -254q-72 -113 -111.5 -256.5t-39.5 -276.5q0 -367 334 -367q72 0 148.5 22t142.5 56l92 365h-264l32 125h408 l-144 -574q-193 -127 -432 -127q-236 0 -356.5 125t-120.5 371z" />
<glyph unicode="H" horiz-adv-x="1267" d="M57 0l340 1366h150l-148 -588h623l147 588h148l-340 -1366h-150l164 651h-622l-164 -651h-148z" />
<glyph unicode="I" horiz-adv-x="499" d="M57 0l340 1366h154l-342 -1366h-152z" />
<glyph unicode="J" horiz-adv-x="579" d="M-160 -178l33 133h23h12q72 4 120 20.5t81.5 55.5t58.5 105.5t49 174.5l262 1055h154l-273 -1090q-18 -78 -33.5 -130t-29.5 -87.5t-29.5 -60.5t-36.5 -47q-53 -63 -141 -96t-201 -33h-49z" />
<glyph unicode="K" horiz-adv-x="1169" d="M57 0l340 1366h150l-342 -1366h-148zM387 717l690 649h189l-703 -661l408 -705h-191z" />
<glyph unicode="L" horiz-adv-x="950" d="M57 0l340 1366h154l-307 -1233h567l-33 -133h-721z" />
<glyph unicode="M" horiz-adv-x="1574" d="M57 0l340 1366h230l82 -1210l677 1210h238l-340 -1366h-141l315 1241l-700 -1241h-164l-90 1241l-305 -1241h-142z" />
<glyph unicode="N" horiz-adv-x="1292" d="M57 0l340 1366h164l350 -1167l287 1167h143l-340 -1366h-161l-353 1165l-286 -1165h-144z" />
<glyph unicode="O" horiz-adv-x="1298" d="M133 473q0 96 17.5 194.5t50 190.5t79 175t103.5 149q184 211 455 211q205 0 319.5 -133.5t114.5 -370.5q0 -96 -16.5 -191.5t-48 -184.5t-78 -171t-103.5 -149q-188 -219 -453 -220q-211 0 -325.5 131t-114.5 369zM293 465q0 -166 76.5 -262.5t212.5 -96.5 q233 0 391 279q33 55 58.5 118.5t44 130t27.5 133.5t9 128q0 170 -75.5 267.5t-209.5 97.5q-221 0 -370 -238q-37 -57 -68 -126t-52.5 -141.5t-32.5 -146t-11 -143.5z" />
<glyph unicode="P" horiz-adv-x="1052" d="M57 0l340 1366h256q141 0 221 -15.5t134 -52.5q59 -41 88.5 -108.5t29.5 -153.5q0 -135 -64.5 -248.5t-174.5 -171.5q-35 -16 -70 -27t-80 -18.5t-103.5 -10.5t-137.5 -3h-146l-139 -557h-154zM377 690h139q123 0 188.5 10.5t112.5 36.5q72 41 113 119t41 170 q0 113 -66.5 160t-224.5 47h-168z" />
<glyph unicode="Q" horiz-adv-x="1298" d="M133 471q0 98 17.5 195.5t50 189.5t79 175t103.5 149q186 213 448 213q211 0 326 -132.5t115 -373.5q0 -182 -57.5 -354.5t-167.5 -313.5l139 -219h-193l-51 109q-82 -70 -171 -103t-198 -33q-209 0 -324.5 131t-115.5 367zM293 465q0 -166 76.5 -262.5t212.5 -96.5 q233 0 391 279q31 55 56.5 118.5t44 130t28.5 133.5t10 126q0 170 -75.5 268.5t-209.5 98.5q-221 0 -370 -236q-37 -59 -68 -128t-52.5 -141.5t-32.5 -146t-11 -143.5z" />
<glyph unicode="R" horiz-adv-x="1124" d="M57 0l340 1366h254q117 0 193 -9t123 -32q166 -76 166 -281q0 -104 -45.5 -198t-124.5 -154q-45 -35 -93.5 -54.5t-121.5 -35.5l206 -602h-172l-186 584h-246l-145 -584h-148zM385 717h123q57 0 100 2t76 6t59.5 10t51.5 17q86 35 134 108.5t48 169.5q0 152 -135 189 q-31 8 -77 11t-134 3h-119z" />
<glyph unicode="S" horiz-adv-x="1089" d="M80 330q0 20 1 38.5t5 49.5h150q-4 -23 -5.5 -38t-1.5 -32q0 -117 70 -179.5t199 -62.5q133 0 217 76t84 197q0 92 -68 158q-14 14 -27.5 25t-32 24.5t-45 31t-67.5 41.5q-84 51 -137 93.5t-86 83.5t-45 86t-12 100q0 82 31.5 150.5t88 117.5t135 76t175.5 27 q174 0 272 -85t98 -237q0 -8 -1 -24.5t-3 -32.5h-145v37q0 102 -59.5 155.5t-172.5 53.5q-117 0 -190.5 -60.5t-73.5 -157.5q0 -90 70 -149q12 -10 24.5 -19.5t31 -21.5t48 -30.5t76.5 -47.5q43 -27 72.5 -46t51 -35.5t38 -31t33.5 -30.5q82 -92 82 -225q0 -96 -42 -185.5 t-114 -148.5q-121 -98 -311 -99q-195 0 -304.5 95.5t-109.5 261.5z" />
<glyph unicode="T" horiz-adv-x="927" d="M217 1233l37 133h870l-37 -133h-356l-307 -1233h-150l308 1233h-365z" />
<glyph unicode="U" horiz-adv-x="1187" d="M111 307q0 43 11 116t32 150l196 793h150l-205 -821q-18 -72 -26.5 -125t-8.5 -98q0 -104 68.5 -160t197.5 -56q215 0 314 158q14 20 24 41t20.5 51.5t22 75.5t29.5 117l203 817h147l-203 -819q-23 -92 -38 -149.5t-27 -95.5t-26.5 -63.5t-33.5 -56.5 q-66 -100 -178 -154.5t-256 -54.5q-193 0 -303 89t-110 245z" />
<glyph unicode="V" horiz-adv-x="1046" d="M250 1366h153l74 -1188l594 1188h162l-717 -1374h-156z" />
<glyph unicode="W" horiz-adv-x="1523" d="M233 -8l25 1374h143l-41 -1202l566 1202h133l-23 -1202l535 1202h145l-637 -1374h-164l13 1104l-527 -1104h-168z" />
<glyph unicode="X" horiz-adv-x="1089" d="M-72 0l600 713l-231 653h168l166 -539l440 539h178l-567 -668l250 -698h-168l-184 584l-480 -584h-172z" />
<glyph unicode="Y" horiz-adv-x="1017" d="M250 1366h164l149 -659l477 659h181l-613 -793l-139 -573h-150l146 573z" />
<glyph unicode="Z" horiz-adv-x="1032" d="M-55 0l28 119l945 1116h-629l33 131h821l-25 -94l-956 -1139h727l-33 -133h-911z" />
<glyph unicode="[" horiz-adv-x="577" d="M-39 -399l440 1765h308l-29 -115h-176l-383 -1536h176l-29 -114h-307z" />
<glyph unicode="\" horiz-adv-x="1181" d="M358 1366h144l385 -1671h-144z" />
<glyph unicode="]" horiz-adv-x="577" d="M-121 -399l29 114h176l383 1536h-176l28 115h308l-441 -1765h-307z" />
<glyph unicode="^" horiz-adv-x="1028" d="M74 748l362 622h197l362 -622h-164l-299 503l-296 -503h-162z" />
<glyph unicode="_" horiz-adv-x="1024" d="M20 -135h1024v-137h-1024v137z" />
<glyph unicode="`" horiz-adv-x="1024" d="M412 1389h176l137 -265h-113z" />
<glyph unicode="a" horiz-adv-x="958" d="M45 219q0 209 240 299q33 12 59.5 21.5t66.5 19.5t102 23.5t167 35.5l35 7l8 32q4 18 8 48t4 51q0 53 -44 81.5t-122 28.5q-92 0 -148 -35.5t-87 -113.5h-139q90 272 387 272q139 0 215.5 -56t76.5 -159q0 -59 -20 -141l-94 -377q-23 -84 -31 -142.5t-8 -113.5h-137 q0 41 2 67.5t10 63.5q-59 -78 -129 -114.5t-162 -36.5q-121 0 -190.5 64t-69.5 175zM190 236q0 -66 41 -101t113 -35q139 0 234 117q55 72 88 211l24 96q-139 -25 -235.5 -52.5t-154.5 -61t-84 -76.5t-26 -98z" />
<glyph unicode="b" horiz-adv-x="1017" d="M16 0q10 20 18.5 43t17.5 53.5t20.5 72.5t27.5 105l273 1098h139l-133 -532q66 80 131 114.5t152 34.5q135 0 212.5 -89t77.5 -249q0 -135 -48 -271t-128 -235q-135 -166 -321 -165q-184 0 -254 167q-18 -84 -54 -147h-131zM268 334q0 -106 50.5 -168t138.5 -62 q147 0 254 187q20 37 37.5 81t31 91t20.5 92t7 82q0 111 -45 169t-131 58q-72 0 -137.5 -43t-116.5 -121q-25 -37 -44.5 -83t-33.5 -94t-22.5 -97t-8.5 -92z" />
<glyph unicode="c" horiz-adv-x="948" d="M82 352q0 135 47 263t133 223q141 154 330 153q137 0 213 -77.5t76 -219.5v-18q0 -8 -2 -23h-138q4 14 4 25v20q0 170 -161 170q-154 0 -260 -178q-45 -76 -71 -167t-26 -177q0 -115 54.5 -180.5t150.5 -65.5t157.5 56.5t98.5 175.5h143q-94 -354 -403 -355 q-164 0 -255 98.5t-91 276.5z" />
<glyph unicode="d" horiz-adv-x="1011" d="M78 330q0 68 13 137.5t37 135t57.5 125.5t74.5 108q133 152 309 151q92 0 151.5 -39t94.5 -125l137 549h138l-271 -1085q-16 -63 -25.5 -108.5t-15.5 -78t-8 -56.5t-2 -44h-137v14q0 29 5 60.5t15 56.5q-61 -84 -123.5 -117.5t-150.5 -33.5q-139 0 -219 94t-80 256z M225 334q0 -104 49.5 -167t135.5 -63q150 0 254 199q39 74 63.5 165t24.5 159q0 113 -48.5 174t-136.5 61q-133 0 -233 -160q-49 -78 -79 -177t-30 -191z" />
<glyph unicode="e" horiz-adv-x="989" d="M82 348q0 135 49 267.5t135 224.5q139 152 330 151q152 0 237 -91t85 -253q0 -49 -6.5 -92t-18.5 -86h-649q-6 -35 -9.5 -58.5t-3.5 -50.5q0 -125 56.5 -192.5t158.5 -67.5q92 0 152.5 47.5t112.5 157.5l137 -6q-115 -322 -418 -322q-164 0 -256 97.5t-92 273.5zM274 582 h498q8 39 8 67q0 104 -50 161.5t-144 57.5q-102 0 -181.5 -72.5t-130.5 -213.5z" />
<glyph unicode="f" horiz-adv-x="583" d="M68 0l213 852h-134l29 117h135l19 80q12 51 23.5 89t21.5 65.5t20.5 49t22.5 39.5q74 104 217 105q41 0 82 -8.5t90 -28.5l-33 -133q-39 23 -69.5 33t-63.5 10q-35 0 -60.5 -10.5t-46 -37t-37 -71.5t-34.5 -115l-17 -67h238l-29 -117h-231l-213 -852h-143z" />
<glyph unicode="g" horiz-adv-x="952" d="M-92 -145q0 92 60.5 151.5t191.5 93.5q-35 20 -49.5 42t-14.5 51q0 55 55.5 97t184.5 85q-150 72 -150 235q0 80 29 149.5t79 121t117.5 80t147.5 28.5q45 0 82 -8t82 -29h307l-24 -102h-205q25 -37 35 -71t10 -81q0 -92 -43 -173t-117 -126q-25 -14 -47.5 -23t-50 -15.5 t-62 -9.5t-82.5 -5q-90 -29 -140 -61.5t-50 -63.5q0 -25 27.5 -36t115.5 -21q186 -25 268.5 -84.5t82.5 -171.5q0 -72 -32 -131.5t-89.5 -102.5t-137 -66.5t-176.5 -23.5q-92 0 -166.5 19.5t-128 55.5t-82 85.5t-28.5 110.5zM39 -137q0 -78 77 -124t203 -46q129 0 209 53 t80 139q0 154 -266 154q-143 0 -223 -46t-80 -130zM317 621q0 -78 47.5 -122t127.5 -44q47 0 88 19.5t71.5 53t48 80.5t17.5 101q0 78 -44 123t-120 45q-49 0 -91 -20.5t-75 -55.5t-51.5 -81t-18.5 -99z" />
<glyph unicode="h" horiz-adv-x="1001" d="M31 0l342 1372h137l-127 -516q115 133 279 133q117 0 186.5 -62.5t69.5 -166.5q0 -33 -7.5 -74t-27.5 -123l-142 -563h-137l141 569q14 57 20.5 92t6.5 64q0 59 -43 97t-115 38q-231 0 -313 -328l-133 -532h-137z" />
<glyph unicode="i" horiz-adv-x="440" d="M31 0l241 969h148l-242 -969h-147zM317 1255q0 51 37 90t84 39q37 0 60.5 -23.5t23.5 -60.5q0 -49 -35.5 -86.5t-83.5 -37.5q-37 0 -61.5 22t-24.5 57z" />
<glyph unicode="j" horiz-adv-x="507" d="M-219 -383l31 127h16q133 0 203 94q25 35 46 93.5t50 168.5l217 869h145l-219 -885q-18 -72 -33.5 -123t-31 -89t-31.5 -65.5t-37 -52.5q-55 -66 -135 -101.5t-178 -35.5h-43zM389 1255q0 51 37 90t84 39q39 0 61.5 -22.5t22.5 -61.5q0 -49 -36 -86.5t-83 -37.5 q-37 0 -61.5 22t-24.5 57z" />
<glyph unicode="k" horiz-adv-x="911" d="M31 0l342 1372h139l-342 -1372h-139zM303 518l502 451h184l-522 -457l313 -512h-180z" />
<glyph unicode="l" horiz-adv-x="440" d="M31 0l342 1372h147l-342 -1372h-147z" />
<glyph unicode="m" horiz-adv-x="1521" d="M31 0l168 670q16 70 26.5 110.5t15.5 67t6 44t1 40.5v14q0 8 -2 23h135q2 -12 3 -22.5t1 -14.5q0 -35 -14 -98q61 78 131.5 116.5t156.5 38.5q178 0 236 -168q125 168 303 168q106 0 175 -59.5t69 -151.5q0 -35 -7.5 -75.5t-25.5 -110.5l-147 -592h-138l146 584 q25 98 24 149q0 59 -40 94t-107 35q-215 0 -289 -289l-143 -573h-137l147 588q25 100 25 145q0 57 -40 93t-104 36q-221 0 -297 -297l-141 -565h-137z" />
<glyph unicode="n" horiz-adv-x="1007" d="M31 0l159 639q18 76 29.5 122t17 76.5t7.5 52t2 46.5v12q0 8 -2 21h137q2 -12 2 -23v-16q0 -23 -3 -46.5t-13 -58.5q123 164 307 164q113 0 181.5 -59.5t68.5 -157.5q0 -35 -8.5 -84t-30.5 -135l-137 -553h-138l135 549q18 70 25.5 110.5t7.5 71.5q0 63 -40 97t-111 34 q-242 0 -336 -370l-123 -492h-137z" />
<glyph unicode="o" horiz-adv-x="1013" d="M80 350q0 70 14.5 140.5t41 138t64.5 127t83 104.5q131 131 319 131q158 0 249 -100t91 -275q0 -131 -48 -262t-134 -225q-137 -152 -330 -152q-164 0 -257 99.5t-93 273.5zM227 346q0 -117 55.5 -182.5t151.5 -65.5q154 0 260 170q47 76 75 171.5t28 181.5 q0 117 -54.5 182t-148.5 65q-162 0 -266 -174q-47 -72 -74 -168t-27 -180z" />
<glyph unicode="p" horiz-adv-x="1011" d="M-53 -395l272 1085q16 66 26.5 109t16.5 73.5t9 52t3 44.5h138q-2 -31 -7.5 -65t-15.5 -58q59 82 122.5 116.5t152.5 34.5q139 0 219 -93t80 -257q0 -135 -49.5 -271t-131.5 -235q-135 -154 -309 -153q-92 0 -150.5 39t-99.5 127l-139 -549h-137zM287 348q0 -111 49 -173 t137 -62q131 0 236 161q49 78 78.5 178.5t29.5 192.5q0 104 -49 165.5t-135 61.5q-152 0 -254 -194q-41 -76 -66.5 -168t-25.5 -162z" />
<glyph unicode="q" horiz-adv-x="1017" d="M76 317q0 68 13 137.5t37 137t57.5 128t74.5 109.5q131 160 315 160q96 0 158 -41t96 -127q18 80 54 148h131q-10 -23 -18.5 -45.5t-17.5 -53t-21.5 -72.5t-26.5 -104l-271 -1089h-139l131 524q-66 -80 -131 -114.5t-151 -34.5q-135 0 -213 88.5t-78 248.5zM221 332 q0 -111 44 -169.5t130 -58.5q150 0 256 164q25 37 44.5 83t33.5 95.5t22.5 98.5t8.5 94q0 104 -50.5 164.5t-136.5 60.5q-150 0 -256 -186q-20 -37 -37.5 -81t-30.5 -91t-20.5 -92t-7.5 -82z" />
<glyph unicode="r" horiz-adv-x="657" d="M31 0l157 635q20 80 31.5 129t19 83t10.5 60.5t5 61.5h133v-19q0 -84 -35 -188q78 121 148.5 174t154.5 53q27 0 52.5 -5t60.5 -19l-37 -146q-43 23 -66.5 29t-52.5 6q-109 0 -197.5 -113.5t-140.5 -316.5l-104 -424h-139z" />
<glyph unicode="s" horiz-adv-x="882" d="M43 250v22q0 12 4 31h141q-4 -12 -4 -20v-17q0 -168 193 -168q98 0 161.5 50.5t63.5 127.5q0 49 -27.5 81t-111.5 73q-100 49 -145.5 75.5t-69.5 51.5q-61 61 -62 148q0 61 27 113t73 91t110.5 60.5t138.5 21.5q141 0 220 -64.5t79 -178.5v-21q0 -10 -5 -27h-133 q2 8 2 15v12q0 70 -45 107.5t-125 37.5q-86 0 -141 -45t-55 -112q0 -55 49 -88q10 -8 18.5 -14.5t22.5 -13.5l41 -20q27 -13 74 -38q61 -31 103 -58.5t66.5 -56.5t35 -61.5t10.5 -71.5q0 -70 -29 -127t-79 -99t-120.5 -66t-154.5 -24q-154 0 -240 72t-86 201z" />
<glyph unicode="t" horiz-adv-x="618" d="M115 150q0 18 2 34.5t6 40t13 57t24 87.5l129 483h-144l31 117h143l72 282h137l-71 -282h223l-29 -117h-225l-123 -490q-12 -47 -19.5 -75.5t-11.5 -48t-5 -30.5t-1 -24q0 -78 88 -78q57 0 135 31l-32 -127q-47 -16 -80 -23t-70 -7q-88 0 -140 46t-52 124z" />
<glyph unicode="u" horiz-adv-x="991" d="M96 209q0 33 8.5 85t22.5 105l141 570h138l-146 -590q-10 -35 -16 -75t-6 -62q0 -61 42 -97t115 -36q127 0 215 116q53 68 86 205l135 539h138l-168 -674q-18 -76 -28.5 -120t-15.5 -69.5t-6 -40t-1 -32.5v-33h-136q-2 10 -2 16v11q0 43 15 102q-57 -78 -123 -113.5 t-152 -35.5q-115 0 -185.5 62.5t-70.5 166.5z" />
<glyph unicode="v" horiz-adv-x="833" d="M141 969h144l49 -844l430 844h149l-534 -981h-152z" />
<glyph unicode="w" horiz-adv-x="1323" d="M162 969h145v-801l410 801h139l14 -801l400 801h147l-516 -981h-143l-19 792l-401 -792h-150z" />
<glyph unicode="x" horiz-adv-x="882" d="M-100 0l483 518l-193 451h160l135 -353l303 353h166l-424 -467l222 -502h-162l-162 403l-360 -403h-168z" />
<glyph unicode="y" horiz-adv-x="882" d="M-156 -408l35 138q68 0 117 9t90 37.5t80 80t88 133.5l-88 979h145l49 -858l476 858h149l-520 -899q-84 -145 -143.5 -228.5t-114.5 -132.5q-129 -117 -324 -117h-39z" />
<glyph unicode="z" horiz-adv-x="829" d="M-57 0l24 106l686 744h-487l29 119h669l-22 -101l-701 -749h551l-26 -119h-723z" />
<glyph unicode="{" horiz-adv-x="575" d="M51 -242q0 33 5 65t22 95l80 322q6 25 10 52t4 44q0 76 -80 100l23 96q68 16 104.5 60.5t61.5 136.5l79 322q23 96 52.5 159.5t76 100.5t113 52t158.5 13l-27 -108q-59 0 -98 -8.5t-66.5 -32t-45 -63.5t-34.5 -103l-81 -330q-16 -59 -31 -99t-34 -67.5t-46 -46t-66 -35.5 q41 -29 56.5 -57.5t15.5 -65.5q0 -23 -5 -56.5t-13 -65.5l-82 -330q-12 -47 -16.5 -72.5t-4.5 -48.5q0 -47 37 -66.5t123 -21.5l-27 -107q-59 0 -83.5 2.5t-49.5 6.5q-131 26 -131 157z" />
<glyph unicode="|" horiz-adv-x="1032" d="M461 -342v1708h149v-1708h-149z" />
<glyph unicode="}" horiz-adv-x="575" d="M-174 -408l27 107q59 0 98 9t66.5 31.5t45 63.5t33.5 105l82 330q14 59 29.5 99t35 66.5t46 45t65.5 34.5q-41 31 -56 58.5t-15 66.5q0 23 5 56.5t13 66.5l82 330q12 47 16 72.5t4 48.5q0 47 -36.5 66.5t-122.5 19.5l26 108q55 0 82 -2t51 -6q131 -27 132 -158 q0 -33 -5.5 -64.5t-21.5 -94.5l-80 -322q-6 -25 -10 -53.5t-4 -44.5q0 -74 80 -99l-23 -96q-68 -16 -105.5 -60t-60.5 -136l-80 -322q-23 -96 -53.5 -159.5t-76.5 -100.5t-111.5 -52.5t-157.5 -13.5z" />
<glyph unicode="~" horiz-adv-x="1366" d="M211 1251q33 66 63.5 111t63.5 72.5t69.5 40t84.5 12.5q41 0 93 -15.5t136 -56.5q45 -20 74.5 -33.5t51 -20.5t38 -9t35.5 -2q59 0 98 29.5t86 111.5l92 -53q-59 -123 -130 -177.5t-165 -54.5q-23 0 -44 4t-52 14.5t-76 31t-115 51.5q-84 37 -135 36q-53 0 -94 -34.5 t-86 -114.5z" />
<glyph unicode="&#xa1;" horiz-adv-x="516" d="M-29 -371l262 955h113l-223 -955h-152zM240 852q0 55 39.5 97t93.5 42q43 0 71.5 -26.5t28.5 -67.5q0 -59 -41 -101t-96 -42q-41 0 -68.5 27.5t-27.5 70.5z" />
<glyph unicode="&#xa2;" d="M184 567q0 152 58.5 292t160.5 235q55 51 118 78.5t141 33.5l38 187h88l-38 -189q231 -39 231 -299v-35h-137q2 16 2 25v20q0 74 -29 113t-94 53l-162 -762q168 14 230 230h143q-41 -172 -143.5 -262t-255.5 -92l-48 -224h-90l49 232q-129 29 -195.5 120.5t-66.5 243.5z M330 561q0 -193 143 -237l162 757q-61 -16 -108.5 -53t-92.5 -106q-47 -78 -75.5 -174.5t-28.5 -186.5z" />
<glyph unicode="&#xa3;" d="M10 0q68 82 143.5 234.5t172.5 402.5h-191l27 121h211q39 113 79 216t68 167q61 135 133 191.5t183 56.5q106 0 164.5 -58.5t58.5 -169.5v-24q0 -10 -2 -29h-131v47q0 10 -2 23q-4 41 -33 62.5t-72 21.5q-33 0 -58.5 -10.5t-48 -35t-44 -65.5t-43.5 -100 q-18 -47 -44 -116t-63 -177h299l-26 -121h-318q-29 -80 -59.5 -155.5t-63.5 -143.5t-64.5 -123t-62.5 -94q29 6 54.5 9t53 5t60.5 3t74 1h51q37 0 96 -2q92 -2 134 34t63 130h127q-27 -176 -131 -244q-25 -16 -50.5 -27.5t-59 -17.5t-80 -9t-109.5 -3h-496z" />
<glyph unicode="&#xa4;" horiz-adv-x="1366" d="M176 1221l84 84l195 -195q78 55 145.5 79.5t149.5 24.5t150.5 -24.5t141.5 -77.5l195 191l82 -82l-193 -193q55 -78 80 -145.5t25 -147.5t-24.5 -147.5t-78.5 -141.5l195 -194l-82 -84l-194 194q-72 -53 -144 -78.5t-149 -25.5q-78 0 -147.5 24.5t-149.5 79.5l-193 -194 l-84 84l193 194q-104 135 -105 291q0 78 24.5 146.5t80.5 142.5zM406 735q0 -72 26.5 -134t73.5 -108.5t109.5 -74t134.5 -27.5t134 26.5t109 74t74 110t27 133.5q0 72 -27 134.5t-73 109.5t-108.5 74.5t-131.5 27.5q-74 0 -137.5 -26.5t-110.5 -73.5t-73.5 -109.5 t-26.5 -136.5z" />
<glyph unicode="&#xa5;" d="M102 508l25 100h352l-43 162h-268l25 100h217l-136 496h164l150 -659l477 659h180l-383 -496h213l-26 -100h-265l-122 -162h348l-25 -100h-369l-124 -508h-148l129 508h-371z" />
<glyph unicode="&#xa6;" horiz-adv-x="1032" d="M461 313h149v-655h-149v655zM461 684v682h149v-682h-149z" />
<glyph unicode="&#xa7;" horiz-adv-x="1026" d="M14 -6q0 12 2 29h134q-2 -12 -3 -23v-18q0 -90 50.5 -140.5t142.5 -50.5q102 0 168.5 63.5t66.5 161.5q0 29 -6 52.5t-24.5 47t-51 51.5t-83.5 64q-84 59 -134.5 99.5t-77 71t-35.5 59t-9 63.5q0 188 249 297q-96 88 -96 199q0 72 29 134.5t79 108.5t117.5 71.5 t145.5 25.5q141 0 222 -76t81 -205v-28q0 -10 -2 -29h-131q2 14 2 22v21q0 86 -46 131t-136 45q-47 0 -87 -15.5t-70 -43t-47.5 -64.5t-17.5 -80q0 -72 72 -131q12 -10 21.5 -17t26 -19.5t44 -32t78.5 -54.5q109 -74 150 -125t41 -112q0 -96 -63.5 -176t-186.5 -133 q49 -47 69.5 -92.5t20.5 -108.5q0 -80 -28.5 -146.5t-81 -115.5t-123 -77t-152.5 -28q-154 0 -237 78t-83 223v23zM293 557q0 -23 5 -40t18.5 -35.5t39 -40t66.5 -50.5q47 -35 73.5 -54.5t53.5 -35.5q92 41 140 97.5t48 121.5q0 18 -4 33.5t-17.5 32t-36 35t-58.5 43.5 q-55 41 -82 59t-56 37q-190 -84 -190 -203z" />
<glyph unicode="&#xa8;" horiz-adv-x="1024" d="M422 1231q0 47 36 83t83 36q39 0 62.5 -23.5t23.5 -60.5q0 -51 -35 -86t-82 -35q-39 0 -63.5 23.5t-24.5 62.5zM786 1231q0 47 36 83t85 36q39 0 62.5 -22.5t23.5 -61.5q0 -51 -34.5 -86t-81.5 -35q-41 0 -66 23.5t-25 62.5z" />
<glyph unicode="&#xa9;" horiz-adv-x="1634" d="M166 684q0 147 55 277.5t152.5 225.5t227.5 150.5t280 55.5q143 0 270 -56.5t222 -153t150.5 -224.5t55.5 -273q0 -147 -55.5 -275t-151.5 -224.5t-224 -151.5t-276 -55q-145 0 -274 55t-225.5 151.5t-151.5 224.5t-55 273zM260 684q0 -129 48 -242.5t131 -197.5 t194.5 -133.5t238.5 -49.5t239 49.5t195 133.5t131 198.5t48 243.5q0 127 -48 240.5t-130 198.5t-192.5 134.5t-233.5 49.5q-131 0 -244 -48.5t-197 -133.5t-132 -198.5t-48 -244.5zM539 692q0 96 25.5 175t72.5 134.5t113.5 86t148.5 30.5q127 0 203 -65.5t92 -186.5h-104 q-37 158 -191 158q-113 0 -178.5 -88t-65.5 -242t65.5 -241.5t178.5 -87.5q180 0 203 206h104q-10 -143 -89 -222t-214 -79q-84 0 -150.5 30t-114.5 85t-73.5 133t-25.5 174z" />
<glyph unicode="&#xaa;" horiz-adv-x="927" d="M264 596l21 80h483l-20 -80h-484zM338 922q0 139 184 194q27 8 83.5 20.5t146.5 30.5l2 13q4 16 6 28.5t2 22.5q0 63 -98 63q-57 0 -89 -19.5t-51 -66.5h-100q29 90 89 132t161 42q88 0 138 -34.5t50 -98.5q0 -35 -12 -84l-55 -223q-10 -35 -15.5 -71.5t-5.5 -63.5v-8 l-2 -15h-98v27q0 10 2 35q-43 -41 -79 -57.5t-87 -16.5q-80 0 -126 40t-46 110zM444 934q0 -76 91 -76q141 0 186 186l12 50q-160 -29 -224.5 -64t-64.5 -96z" />
<glyph unicode="&#xab;" horiz-adv-x="757" d="M84 500l297 469h115l-279 -480l27 -489h-105zM371 500l297 469h114l-278 -480l26 -489h-104z" />
<glyph unicode="&#xac;" horiz-adv-x="1024" d="M88 406v139h887v-545h-150v406h-737z" />
<glyph unicode="&#xad;" horiz-adv-x="544" d="M-2 459l29 112h544l-28 -112h-545z" />
<glyph unicode="&#xae;" horiz-adv-x="1634" d="M166 684q0 147 55 277.5t152.5 225.5t227.5 150.5t280 55.5q143 0 270 -56.5t222 -153t150.5 -224.5t55.5 -273q0 -147 -55.5 -275t-151.5 -224.5t-224 -151.5t-276 -55q-145 0 -274 55t-225.5 151.5t-151.5 224.5t-55 273zM260 684q0 -129 48 -242.5t131 -197.5 t194.5 -133.5t238.5 -49.5t239 49.5t195 133.5t131 198.5t48 243.5q0 127 -48 240.5t-130 198.5t-192.5 134.5t-233.5 49.5q-131 0 -244 -48.5t-197 -133.5t-132 -198.5t-48 -244.5zM629 270v820h159q49 0 84 -1.5t63 -4.5t49.5 -8t43.5 -13q66 -23 104.5 -79t38.5 -128 q0 -162 -172 -221l228 -365h-133l-217 346h-138v-346h-110zM739 709h54q76 0 108.5 3t61.5 13q92 29 92 131q0 94 -76 123q-14 6 -29.5 9t-36 5t-50 3t-72.5 1h-52v-288z" />
<glyph unicode="&#xaf;" horiz-adv-x="1024" d="M451 1198l24 96h492l-25 -96h-491z" />
<glyph unicode="&#x2c9;" horiz-adv-x="1024" d="M451 1198l24 96h492l-25 -96h-491z" />
<glyph unicode="&#xb0;" horiz-adv-x="1024" d="M383 1114q0 57 22.5 107.5t62.5 88.5t93 60.5t113 22.5q59 0 112.5 -22.5t92.5 -60.5t61.5 -90.5t22.5 -109.5q0 -59 -22.5 -111.5t-61.5 -90.5t-92.5 -60.5t-112.5 -22.5q-61 0 -113.5 22.5t-92.5 61.5t-62.5 91.5t-22.5 113.5zM479 1112q0 -82 56.5 -137t138.5 -55 q39 0 73.5 15t61.5 40.5t42 60.5t15 74t-15 74t-41 60.5t-61.5 39.5t-74.5 14q-41 0 -76 -14t-61.5 -39.5t-42 -59.5t-15.5 -73z" />
<glyph unicode="&#xb1;" d="M82 59v111h874v-111h-874zM82 645v107h381v395h112v-395h381v-107h-381v-366h-112v366h-381z" />
<glyph unicode="&#xb2;" horiz-adv-x="692" d="M131 532l19 78q125 121 210.5 205t142 139.5t86 89t44 55t16.5 35t2 31.5q0 39 -30.5 63.5t-81.5 24.5q-68 0 -108 -38.5t-60 -124.5h-99q47 256 277 256q94 0 151.5 -47.5t57.5 -120.5q0 -47 -22.5 -90.5t-76.5 -102.5q-16 -18 -30 -33l-38 -38q-24 -24 -64 -62.5 t-107 -103.5l-123 -121h342l-23 -95h-485z" />
<glyph unicode="&#xb3;" horiz-adv-x="692" d="M150 723v20q0 10 2 27h102q-2 -6 -2 -12v-10q0 -133 137 -134q39 0 74 14.5t60.5 39t40 58.5t14.5 71q0 55 -37 85.5t-107 30.5h-45l23 91l45 -3q78 0 131 43t53 109q0 45 -33 72.5t-86 27.5q-59 0 -95 -32.5t-56 -104.5h-101q55 229 265 230q98 0 156.5 -50.5 t58.5 -134.5q0 -72 -41 -125t-117 -82q94 -45 94 -155q0 -59 -23.5 -109.5t-63.5 -87.5t-96.5 -58.5t-119.5 -21.5q-106 0 -169.5 54.5t-63.5 146.5z" />
<glyph unicode="&#xb4;" horiz-adv-x="1024" d="M520 1130l256 252h219l-354 -252h-121z" />
<glyph unicode="&#xb5;" horiz-adv-x="1030" d="M119 -344v1327h149v-557q0 -113 18.5 -171t65.5 -101q35 -31 81 -48.5t95 -17.5q61 0 114.5 26.5t90.5 75.5q39 51 54.5 107.5t15.5 146.5v539h149v-983h-149v174q-47 -104 -113.5 -152.5t-165.5 -48.5q-86 0 -145.5 36t-110.5 116v-469h-149z" />
<glyph unicode="&#x3bc;" horiz-adv-x="1030" d="M119 -344v1327h149v-557q0 -113 18.5 -171t65.5 -101q35 -31 81 -48.5t95 -17.5q61 0 114.5 26.5t90.5 75.5q39 51 54.5 107.5t15.5 146.5v539h149v-983h-149v174q-47 -104 -113.5 -152.5t-165.5 -48.5q-86 0 -145.5 36t-110.5 116v-469h-149z" />
<glyph unicode="&#xb6;" d="M104 907q0 63 18.5 124t50.5 113t78 94t101 69q119 59 332 59h524l-30 -117h-121l-363 -1452h-129l363 1452h-215l-363 -1452h-127l211 848q-70 2 -108.5 9.5t-79.5 23.5q-66 29 -104 89t-38 140z" />
<glyph unicode="&#xb7;" horiz-adv-x="514" d="M147 471q0 57 41 99t97 42q41 0 68.5 -27.5t27.5 -70.5q0 -27 -11.5 -51.5t-29.5 -44t-42 -30.5t-50 -11q-43 0 -72 26.5t-29 67.5z" />
<glyph unicode="&#xb8;" horiz-adv-x="1024" d="M176 -377l19 72q35 -12 56 -16.5t44 -4.5q49 0 81 28t32 71q0 78 -125 80l104 147h92l-73 -104q123 -31 122 -134q0 -74 -58 -123t-151 -49q-39 0 -69.5 7.5t-73.5 25.5z" />
<glyph unicode="&#xb9;" horiz-adv-x="692" d="M334 532l153 621l-145 -8l18 72q80 2 126 28.5t75 91.5h76l-201 -805h-102z" />
<glyph unicode="&#xba;" horiz-adv-x="935" d="M260 596l21 80h483l-21 -80h-483zM346 1001q0 84 34 166t91 136q86 80 203 79q102 0 161.5 -61t59.5 -166q0 -80 -25.5 -149.5t-69.5 -122t-102.5 -82t-126.5 -29.5q-104 0 -164.5 61.5t-60.5 167.5zM453 1001q0 -66 33.5 -104.5t91.5 -38.5q92 0 151 96q29 41 44 95.5 t15 103.5q0 66 -32.5 104.5t-89.5 38.5q-92 0 -156 -96q-27 -43 -42 -97.5t-15 -101.5z" />
<glyph unicode="&#xbb;" horiz-adv-x="757" d="M-14 0l278 479l-26 490h102l57 -500l-299 -469h-112zM272 0l279 479l-27 490h105l55 -500l-299 -469h-113z" />
<glyph unicode="&#xbc;" horiz-adv-x="1683" d="M256 0l1130 1331h142l-1133 -1331h-139zM334 532l153 621l-145 -8l18 72q80 2 126 28.5t75 91.5h76l-201 -805h-102zM983 193l21 77l452 537h125l-131 -522h129l-23 -92h-126l-50 -197h-106l49 197h-340zM1122 285h228l106 405z" />
<glyph unicode="&#xbd;" horiz-adv-x="1683" d="M256 0l1130 1331h142l-1133 -1331h-139zM334 532l153 621l-145 -8l18 72q80 2 126 28.5t75 91.5h76l-201 -805h-102zM989 0l21 78q125 121 211 204t142 138t86 89t44 55.5t16 34.5t2 32q0 41 -30.5 64.5t-81.5 23.5q-131 0 -170 -162h-99q47 254 279 254q94 0 151.5 -46 t57.5 -122q0 -47 -22.5 -90t-77.5 -102q-16 -18 -29.5 -33t-37.5 -37.5t-63.5 -61t-107.5 -104.5q-33 -31 -63.5 -60.5t-61.5 -60.5h344l-24 -94h-486z" />
<glyph unicode="&#xbe;" horiz-adv-x="1683" d="M150 723v20q0 10 2 27h102q-2 -6 -2 -12v-10q0 -133 137 -134q39 0 74 14.5t60.5 39t40 58.5t14.5 71q0 55 -37 85.5t-107 30.5h-45l23 91l45 -3q78 0 131 43t53 109q0 45 -33 72.5t-86 27.5q-59 0 -95 -32.5t-56 -104.5h-101q55 229 265 230q98 0 156.5 -50.5 t58.5 -134.5q0 -72 -41 -125t-117 -82q94 -45 94 -155q0 -59 -23.5 -109.5t-63.5 -87.5t-96.5 -58.5t-119.5 -21.5q-106 0 -169.5 54.5t-63.5 146.5zM256 0l1130 1331h142l-1133 -1331h-139zM983 193l21 77l454 537h123l-131 -522h131l-22 -92h-129l-50 -197h-106l49 197 h-340zM1122 285h228l106 405z" />
<glyph unicode="&#xbf;" horiz-adv-x="829" d="M-41 -143q0 43 10.5 79.5t35 73.5t66.5 79t107 95q70 55 111 94t65.5 79t38 91.5t27.5 133.5h139q-18 -92 -33.5 -151.5t-40 -105.5t-62.5 -86t-97 -94q-41 -35 -65.5 -56t-40 -35.5t-25 -26t-21.5 -25.5q-53 -63 -53 -131q0 -53 40 -85t105 -32q88 0 141.5 46t84.5 149 h131q-35 -162 -131.5 -247t-247.5 -85q-131 0 -208 64.5t-77 175.5zM416 852q0 55 40 97t93 42q43 0 71.5 -26.5t28.5 -67.5q0 -59 -41 -101t-96 -42q-41 0 -68.5 27.5t-27.5 70.5z" />
<glyph unicode="&#xc0;" horiz-adv-x="1134" d="M-70 0l799 1374h137l107 -1374h-154l-22 362h-500l-207 -362h-160zM371 494h420l-19 313q-4 51 -7 148.5t-9 244.5q-41 -82 -69 -136t-50.5 -96t-42 -79t-45.5 -84zM547 1753h203l180 -248h-135z" />
<glyph unicode="&#xc1;" horiz-adv-x="1134" d="M-70 0l799 1374h137l107 -1374h-154l-22 362h-500l-207 -362h-160zM371 494h420l-19 313q-4 51 -7 148.5t-9 244.5q-41 -82 -69 -136t-50.5 -96t-42 -79t-45.5 -84zM713 1511l260 234h264l-379 -234h-145z" />
<glyph unicode="&#xc2;" horiz-adv-x="1134" d="M-70 0l799 1374h137l107 -1374h-154l-22 362h-500l-207 -362h-160zM371 494h420l-19 313q-4 51 -7 148.5t-9 244.5q-41 -82 -69 -136t-50.5 -96t-42 -79t-45.5 -84zM483 1501l312 256h172l184 -256h-135l-146 160l-249 -160h-138z" />
<glyph unicode="&#xc3;" horiz-adv-x="1134" d="M-70 0l799 1374h137l107 -1374h-154l-22 362h-500l-207 -362h-160zM371 494h420l-19 313q-4 51 -7 148.5t-9 244.5q-41 -82 -69 -136t-50.5 -96t-42 -79t-45.5 -84zM516 1540q94 190 232 191q29 0 57.5 -9.5t68.5 -31.5q45 -27 68 -35t45 -8q72 0 131 90l76 -21 q-90 -195 -225 -194q-35 0 -66 10t-78 37q-41 23 -63.5 32t-42.5 9q-70 0 -129 -88z" />
<glyph unicode="&#xc4;" horiz-adv-x="1134" d="M-70 0l799 1374h137l107 -1374h-154l-22 362h-500l-207 -362h-160zM371 494h420l-19 313q-4 51 -7 148.5t-9 244.5q-41 -82 -69 -136t-50.5 -96t-42 -79t-45.5 -84zM543 1614q0 53 37.5 91t91.5 38q43 0 68.5 -25.5t25.5 -66.5q0 -53 -37 -92t-90 -39q-43 0 -69.5 26.5 t-26.5 67.5zM940 1614q0 53 38 91t91 38q43 0 68.5 -25.5t25.5 -66.5q0 -53 -36.5 -92t-90.5 -39q-43 0 -69.5 26.5t-26.5 67.5z" />
<glyph unicode="&#xc5;" horiz-adv-x="1134" d="M-70 0l799 1374h137l107 -1374h-154l-22 362h-500l-207 -362h-160zM371 494h420l-19 313q-4 51 -7 148.5t-9 244.5q-41 -82 -69 -136t-50.5 -96t-42 -79t-45.5 -84zM653 1647q0 80 55.5 135t135.5 55q78 0 132 -55.5t54 -132.5q0 -41 -14.5 -75t-40 -60.5t-60 -41 t-73.5 -14.5t-74 15.5t-60.5 41t-40 59.5t-14.5 73zM741 1647q0 -41 30 -71t71 -30t70.5 30t29.5 73q0 41 -28.5 70.5t-69.5 29.5q-43 0 -73 -29.5t-30 -72.5z" />
<glyph unicode="&#xc6;" horiz-adv-x="1730" d="M-70 0l1100 1366h795l-33 -133h-565l-115 -459h530l-32 -133h-531l-127 -508h604l-32 -133h-756l98 383h-463l-301 -383h-172zM510 516h387l190 739z" />
<glyph unicode="&#xc7;" horiz-adv-x="1247" d="M135 479q0 96 17.5 192.5t49 186.5t78 172t103.5 148q96 111 205.5 163t245.5 52q184 0 286.5 -97.5t102.5 -271.5v-37h-148q0 272 -252 273q-229 0 -389 -271q-63 -111 -101 -248t-38 -262q0 -178 79 -275.5t220 -97.5t247.5 93.5t157.5 265.5h154q-29 -111 -79 -201 t-119.5 -153.5t-154.5 -98.5t-182 -35l-65 -94q139 -31 139 -143q0 -84 -65.5 -137.5t-167.5 -53.5q-41 0 -74 7.5t-80 27.5l21 82q37 -12 60.5 -17t45.5 -5q55 0 89 28.5t34 75.5q0 84 -133 88l98 141q-47 8 -78.5 16.5t-56.5 17.5t-45.5 21.5t-40.5 30.5 q-164 133 -164 416z" />
<glyph unicode="&#xc8;" horiz-adv-x="1026" d="M57 0l340 1366h725l-32 -133h-578l-113 -459h541l-33 -133h-542l-125 -508h612l-35 -133h-760zM524 1753h203l180 -248h-135z" />
<glyph unicode="&#xc9;" horiz-adv-x="1026" d="M57 0l340 1366h725l-32 -133h-578l-113 -459h541l-33 -133h-542l-125 -508h612l-35 -133h-760zM649 1511l260 234h265l-379 -234h-146z" />
<glyph unicode="&#xca;" horiz-adv-x="1026" d="M57 0l340 1366h725l-32 -133h-578l-113 -459h541l-33 -133h-542l-125 -508h612l-35 -133h-760zM459 1501l311 256h172l184 -256h-135l-145 160l-250 -160h-137z" />
<glyph unicode="&#xcb;" horiz-adv-x="1026" d="M57 0l340 1366h725l-32 -133h-578l-113 -459h541l-33 -133h-542l-125 -508h612l-35 -133h-760zM510 1614q0 53 38 91t91 38q43 0 68.5 -25.5t25.5 -66.5q0 -53 -37 -92t-90 -39q-43 0 -69.5 26.5t-26.5 67.5zM907 1614q0 53 38 91t91 38q43 0 68.5 -25.5t25.5 -66.5 q0 -53 -36.5 -92t-89.5 -39q-43 0 -70 26.5t-27 67.5z" />
<glyph unicode="&#xcc;" horiz-adv-x="499" d="M57 0l340 1366h154l-342 -1366h-152zM242 1753h196l166 -248h-135z" />
<glyph unicode="&#xcd;" horiz-adv-x="499" d="M57 0l340 1366h154l-342 -1366h-152zM393 1511l213 234h240l-314 -234h-139z" />
<glyph unicode="&#xce;" horiz-adv-x="499" d="M57 0l340 1366h154l-342 -1366h-152zM217 1501l262 256h172l137 -256h-129l-104 160l-209 -160h-129z" />
<glyph unicode="&#xcf;" horiz-adv-x="499" d="M57 0l340 1366h154l-342 -1366h-152zM264 1622q0 53 38 91t91 38q43 0 68.5 -25.5t25.5 -66.5q0 -53 -36.5 -92t-90.5 -39q-43 0 -69.5 26.5t-26.5 67.5zM596 1622q0 53 38 91t91 38q43 0 68.5 -25.5t25.5 -66.5q0 -53 -37 -92t-90 -39q-43 0 -69.5 26.5t-26.5 67.5z" />
<glyph unicode="&#xd0;" horiz-adv-x="1271" d="M57 0l162 651h-123l33 127h123l145 588h254q158 0 251 -18.5t161 -63.5q182 -119 182 -403q0 -102 -19.5 -201.5t-56 -190t-89 -170t-119.5 -143.5q-55 -51 -112.5 -85t-131.5 -54.5t-170 -28.5t-228 -8h-262zM240 133h157q92 0 164 9.5t129.5 31t104.5 56t90 83.5 q45 51 83 119t63.5 142.5t39.5 153.5t14 157q0 109 -42 190.5t-115 116.5q-45 23 -110.5 32t-170.5 9h-135l-113 -455h349l-33 -127h-346z" />
<glyph unicode="&#xd1;" horiz-adv-x="1292" d="M57 0l340 1366h164l350 -1167l287 1167h143l-340 -1366h-161l-353 1165l-286 -1165h-144zM602 1540q94 190 232 191q29 0 57.5 -9.5t69.5 -31.5q45 -27 67.5 -35t44.5 -8q72 0 131 90l76 -21q-90 -195 -225 -194q-35 0 -66 10t-78 37q-41 23 -63.5 32t-42.5 9 q-70 0 -129 -88z" />
<glyph unicode="&#xd2;" horiz-adv-x="1298" d="M133 473q0 96 17.5 194.5t50 190.5t79 175t103.5 149q184 211 455 211q205 0 319.5 -133.5t114.5 -370.5q0 -96 -16.5 -191.5t-48 -184.5t-78 -171t-103.5 -149q-188 -219 -453 -220q-211 0 -325.5 131t-114.5 369zM293 465q0 -166 76.5 -262.5t212.5 -96.5 q233 0 391 279q33 55 58.5 118.5t44 130t27.5 133.5t9 128q0 170 -75.5 267.5t-209.5 97.5q-221 0 -370 -238q-37 -57 -68 -126t-52.5 -141.5t-32.5 -146t-11 -143.5zM662 1753h202l180 -248h-135z" />
<glyph unicode="&#xd3;" horiz-adv-x="1298" d="M133 473q0 96 17.5 194.5t50 190.5t79 175t103.5 149q184 211 455 211q205 0 319.5 -133.5t114.5 -370.5q0 -96 -16.5 -191.5t-48 -184.5t-78 -171t-103.5 -149q-188 -219 -453 -220q-211 0 -325.5 131t-114.5 369zM293 465q0 -166 76.5 -262.5t212.5 -96.5 q233 0 391 279q33 55 58.5 118.5t44 130t27.5 133.5t9 128q0 170 -75.5 267.5t-209.5 97.5q-221 0 -370 -238q-37 -57 -68 -126t-52.5 -141.5t-32.5 -146t-11 -143.5zM766 1511l260 234h264l-379 -234h-145z" />
<glyph unicode="&#xd4;" horiz-adv-x="1298" d="M133 473q0 96 17.5 194.5t50 190.5t79 175t103.5 149q184 211 455 211q205 0 319.5 -133.5t114.5 -370.5q0 -96 -16.5 -191.5t-48 -184.5t-78 -171t-103.5 -149q-188 -219 -453 -220q-211 0 -325.5 131t-114.5 369zM293 465q0 -166 76.5 -262.5t212.5 -96.5 q233 0 391 279q33 55 58.5 118.5t44 130t27.5 133.5t9 128q0 170 -75.5 267.5t-209.5 97.5q-221 0 -370 -238q-37 -57 -68 -126t-52.5 -141.5t-32.5 -146t-11 -143.5zM575 1501l312 256h172l184 -256h-135l-145 160l-250 -160h-138z" />
<glyph unicode="&#xd5;" horiz-adv-x="1298" d="M133 473q0 96 17.5 194.5t50 190.5t79 175t103.5 149q184 211 455 211q205 0 319.5 -133.5t114.5 -370.5q0 -96 -16.5 -191.5t-48 -184.5t-78 -171t-103.5 -149q-188 -219 -453 -220q-211 0 -325.5 131t-114.5 369zM293 465q0 -166 76.5 -262.5t212.5 -96.5 q233 0 391 279q33 55 58.5 118.5t44 130t27.5 133.5t9 128q0 170 -75.5 267.5t-209.5 97.5q-221 0 -370 -238q-37 -57 -68 -126t-52.5 -141.5t-32.5 -146t-11 -143.5zM598 1540q94 190 231 191q29 0 57.5 -9.5t69.5 -31.5q45 -27 68 -35t45 -8q72 0 131 90l76 -21 q-90 -195 -225 -194q-35 0 -66 10t-78 37q-41 23 -63.5 32t-42.5 9q-70 0 -129 -88z" />
<glyph unicode="&#xd6;" horiz-adv-x="1298" d="M133 473q0 96 17.5 194.5t50 190.5t79 175t103.5 149q184 211 455 211q205 0 319.5 -133.5t114.5 -370.5q0 -96 -16.5 -191.5t-48 -184.5t-78 -171t-103.5 -149q-188 -219 -453 -220q-211 0 -325.5 131t-114.5 369zM293 465q0 -166 76.5 -262.5t212.5 -96.5 q233 0 391 279q33 55 58.5 118.5t44 130t27.5 133.5t9 128q0 170 -75.5 267.5t-209.5 97.5q-221 0 -370 -238q-37 -57 -68 -126t-52.5 -141.5t-32.5 -146t-11 -143.5zM631 1614q0 53 38 91t91 38q43 0 68.5 -25.5t25.5 -66.5q0 -53 -37 -92t-90 -39q-43 0 -69.5 26.5 t-26.5 67.5zM1028 1614q0 53 38 91t91 38q43 0 68.5 -25.5t25.5 -66.5q0 -53 -36.5 -92t-90.5 -39q-43 0 -69.5 26.5t-26.5 67.5z" />
<glyph unicode="&#xd7;" d="M217 391l295 295l-293 293l78 78l293 -293l293 293l75 -78l-292 -291l292 -295l-77 -78l-293 293l-293 -293z" />
<glyph unicode="&#xd8;" horiz-adv-x="1298" d="M12 0l178 195q-57 113 -57 286q0 94 17.5 190.5t50 187.5t79 173t103.5 148q186 213 448 213q53 0 96.5 -6.5t81.5 -21.5t73.5 -42t78.5 -66l107 109h133l-187 -192q31 -68 44.5 -137.5t13.5 -155.5q0 -92 -17.5 -186.5t-49 -183.5t-77 -171t-102.5 -147 q-98 -113 -207.5 -166.5t-245.5 -53.5q-106 0 -178.5 30t-146.5 101l-105 -104h-131zM293 475q0 -39 5 -73.5t15 -88.5l734 834q-23 47 -87.5 80t-136.5 33q-215 0 -366 -236q-37 -57 -68 -125t-52.5 -140.5t-32.5 -145t-11 -138.5zM358 215q47 -57 100.5 -83t125.5 -26 q231 0 389 279q66 115 102.5 251t36.5 265q0 47 -4 76t-21 70z" />
<glyph unicode="&#xd9;" horiz-adv-x="1187" d="M111 307q0 43 11 116t32 150l196 793h150l-205 -821q-18 -72 -26.5 -125t-8.5 -98q0 -104 68.5 -160t197.5 -56q215 0 314 158q14 20 24 41t20.5 51.5t22 75.5t29.5 117l203 817h147l-203 -819q-23 -92 -38 -149.5t-27 -95.5t-26.5 -63.5t-33.5 -56.5 q-66 -100 -178 -154.5t-256 -54.5q-193 0 -303 89t-110 245zM590 1753h203l180 -248h-135z" />
<glyph unicode="&#xda;" horiz-adv-x="1187" d="M111 307q0 43 11 116t32 150l196 793h150l-205 -821q-18 -72 -26.5 -125t-8.5 -98q0 -104 68.5 -160t197.5 -56q215 0 314 158q14 20 24 41t20.5 51.5t22 75.5t29.5 117l203 817h147l-203 -819q-23 -92 -38 -149.5t-27 -95.5t-26.5 -63.5t-33.5 -56.5 q-66 -100 -178 -154.5t-256 -54.5q-193 0 -303 89t-110 245zM698 1511l260 234h265l-379 -234h-146z" />
<glyph unicode="&#xdb;" horiz-adv-x="1187" d="M111 307q0 43 11 116t32 150l196 793h150l-205 -821q-18 -72 -26.5 -125t-8.5 -98q0 -104 68.5 -160t197.5 -56q215 0 314 158q14 20 24 41t20.5 51.5t22 75.5t29.5 117l203 817h147l-203 -819q-23 -92 -38 -149.5t-27 -95.5t-26.5 -63.5t-33.5 -56.5 q-66 -100 -178 -154.5t-256 -54.5q-193 0 -303 89t-110 245zM514 1501l311 256h172l185 -256h-135l-146 160l-250 -160h-137z" />
<glyph unicode="&#xdc;" horiz-adv-x="1187" d="M111 307q0 43 11 116t32 150l196 793h150l-205 -821q-18 -72 -26.5 -125t-8.5 -98q0 -104 68.5 -160t197.5 -56q215 0 314 158q14 20 24 41t20.5 51.5t22 75.5t29.5 117l203 817h147l-203 -819q-23 -92 -38 -149.5t-27 -95.5t-26.5 -63.5t-33.5 -56.5 q-66 -100 -178 -154.5t-256 -54.5q-193 0 -303 89t-110 245zM578 1614q0 53 37.5 91t91.5 38q43 0 68.5 -25.5t25.5 -66.5q0 -53 -37 -92t-90 -39q-43 0 -69.5 26.5t-26.5 67.5zM975 1614q0 53 38 91t91 38q43 0 68.5 -25.5t25.5 -66.5q0 -53 -37 -92t-90 -39 q-43 0 -69.5 26.5t-26.5 67.5z" />
<glyph unicode="&#xdd;" horiz-adv-x="1017" d="M250 1366h164l149 -659l477 659h181l-613 -793l-139 -573h-150l146 573zM612 1511l260 234h265l-379 -234h-146z" />
<glyph unicode="&#xde;" horiz-adv-x="1052" d="M57 0l340 1366h154l-47 -192h102q74 0 129.5 -3.5t97 -11.5t72.5 -21.5t58 -31.5q117 -88 116 -262q0 -135 -64.5 -248t-174.5 -170q-35 -16 -71 -27.5t-81 -18.5t-102.5 -10t-136.5 -3h-148l-90 -367h-154zM330 500h139q123 0 188.5 10t112.5 37q72 41 113 117.5 t41 169.5q0 115 -66.5 160.5t-226.5 45.5h-166z" />
<glyph unicode="&#xdf;" horiz-adv-x="1019" d="M27 0l217 870q23 92 38 148.5t28.5 93.5t27.5 61.5t35 53.5q53 74 134 113.5t179 39.5q68 0 123 -19.5t96 -55t63.5 -83.5t22.5 -106q0 -131 -84 -227t-225 -125q238 -61 238 -283q0 -100 -38 -200.5t-104 -171.5q-115 -123 -280 -123q-92 0 -174 34l32 132 q37 -20 69 -28.5t69 -8.5q131 0 211 125q33 51 50 112.5t17 120.5q0 117 -75.5 173t-239.5 61l30 124q12 -2 23 -2h14q70 0 128.5 20.5t100.5 57.5t65.5 87t23.5 110q0 70 -46 111.5t-120 41.5q-125 0 -199 -108q-14 -20 -23.5 -38.5t-19.5 -47.5t-21.5 -72t-29.5 -112 l-217 -879h-139z" />
<glyph unicode="&#xe0;" horiz-adv-x="958" d="M45 219q0 209 240 299q33 12 59.5 21.5t66.5 19.5t102 23.5t167 35.5l35 7l8 32q4 18 8 48t4 51q0 53 -44 81.5t-122 28.5q-92 0 -148 -35.5t-87 -113.5h-139q90 272 387 272q139 0 215.5 -56t76.5 -159q0 -59 -20 -141l-94 -377q-23 -84 -31 -142.5t-8 -113.5h-137 q0 41 2 67.5t10 63.5q-59 -78 -129 -114.5t-162 -36.5q-121 0 -190.5 64t-69.5 175zM190 236q0 -66 41 -101t113 -35q139 0 234 117q55 72 88 211l24 96q-139 -25 -235.5 -52.5t-154.5 -61t-84 -76.5t-26 -98zM430 1389h176l137 -265h-112z" />
<glyph unicode="&#xe1;" horiz-adv-x="958" d="M45 219q0 209 240 299q33 12 59.5 21.5t66.5 19.5t102 23.5t167 35.5l35 7l8 32q4 18 8 48t4 51q0 53 -44 81.5t-122 28.5q-92 0 -148 -35.5t-87 -113.5h-139q90 272 387 272q139 0 215.5 -56t76.5 -159q0 -59 -20 -141l-94 -377q-23 -84 -31 -142.5t-8 -113.5h-137 q0 41 2 67.5t10 63.5q-59 -78 -129 -114.5t-162 -36.5q-121 0 -190.5 64t-69.5 175zM190 236q0 -66 41 -101t113 -35q139 0 234 117q55 72 88 211l24 96q-139 -25 -235.5 -52.5t-154.5 -61t-84 -76.5t-26 -98zM506 1130l256 252h219l-354 -252h-121z" />
<glyph unicode="&#xe2;" horiz-adv-x="958" d="M45 219q0 209 240 299q33 12 59.5 21.5t66.5 19.5t102 23.5t167 35.5l35 7l8 32q4 18 8 48t4 51q0 53 -44 81.5t-122 28.5q-92 0 -148 -35.5t-87 -113.5h-139q90 272 387 272q139 0 215.5 -56t76.5 -159q0 -59 -20 -141l-94 -377q-23 -84 -31 -142.5t-8 -113.5h-137 q0 41 2 67.5t10 63.5q-59 -78 -129 -114.5t-162 -36.5q-121 0 -190.5 64t-69.5 175zM190 236q0 -66 41 -101t113 -35q139 0 234 117q55 72 88 211l24 96q-139 -25 -235.5 -52.5t-154.5 -61t-84 -76.5t-26 -98zM326 1122l295 269h151l152 -269h-121l-117 174l-231 -174h-129z " />
<glyph unicode="&#xe3;" horiz-adv-x="958" d="M45 219q0 209 240 299q33 12 59.5 21.5t66.5 19.5t102 23.5t167 35.5l35 7l8 32q4 18 8 48t4 51q0 53 -44 81.5t-122 28.5q-92 0 -148 -35.5t-87 -113.5h-139q90 272 387 272q139 0 215.5 -56t76.5 -159q0 -59 -20 -141l-94 -377q-23 -84 -31 -142.5t-8 -113.5h-137 q0 41 2 67.5t10 63.5q-59 -78 -129 -114.5t-162 -36.5q-121 0 -190.5 64t-69.5 175zM190 236q0 -66 41 -101t113 -35q139 0 234 117q55 72 88 211l24 96q-139 -25 -235.5 -52.5t-154.5 -61t-84 -76.5t-26 -98zM344 1161q92 207 217 207q29 0 56.5 -12.5t64.5 -40.5 q41 -35 62.5 -46.5t43.5 -11.5q63 0 113 117l76 -20q-80 -211 -213 -211q-31 0 -59.5 12t-73.5 47q-39 29 -60.5 40t-42.5 11q-61 0 -110 -110z" />
<glyph unicode="&#xe4;" horiz-adv-x="958" d="M45 219q0 209 240 299q33 12 59.5 21.5t66.5 19.5t102 23.5t167 35.5l35 7l8 32q4 18 8 48t4 51q0 53 -44 81.5t-122 28.5q-92 0 -148 -35.5t-87 -113.5h-139q90 272 387 272q139 0 215.5 -56t76.5 -159q0 -59 -20 -141l-94 -377q-23 -84 -31 -142.5t-8 -113.5h-137 q0 41 2 67.5t10 63.5q-59 -78 -129 -114.5t-162 -36.5q-121 0 -190.5 64t-69.5 175zM190 236q0 -66 41 -101t113 -35q139 0 234 117q55 72 88 211l24 96q-139 -25 -235.5 -52.5t-154.5 -61t-84 -76.5t-26 -98zM377 1231q0 47 36 83t83 36q39 0 62.5 -23.5t23.5 -60.5 q0 -51 -35 -86t-82 -35q-39 0 -63.5 23.5t-24.5 62.5zM741 1231q0 47 36 83t85 36q39 0 62.5 -22.5t23.5 -61.5q0 -51 -34.5 -86t-82.5 -35q-41 0 -65.5 23.5t-24.5 62.5z" />
<glyph unicode="&#xe5;" horiz-adv-x="958" d="M45 219q0 209 240 299q33 12 59.5 21.5t66.5 19.5t102 23.5t167 35.5l35 7l8 32q4 18 8 48t4 51q0 53 -44 81.5t-122 28.5q-92 0 -148 -35.5t-87 -113.5h-139q90 272 387 272q139 0 215.5 -56t76.5 -159q0 -59 -20 -141l-94 -377q-23 -84 -31 -142.5t-8 -113.5h-137 q0 41 2 67.5t10 63.5q-59 -78 -129 -114.5t-162 -36.5q-121 0 -190.5 64t-69.5 175zM190 236q0 -66 41 -101t113 -35q139 0 234 117q55 72 88 211l24 96q-139 -25 -235.5 -52.5t-154.5 -61t-84 -76.5t-26 -98zM471 1268q0 39 14.5 73.5t41 60t60.5 40t75 14.5q78 0 132 -55 t54 -133q0 -39 -14.5 -74t-40 -60.5t-60.5 -40t-74 -14.5t-73.5 14.5t-60 40t-40 60.5t-14.5 74zM559 1268q0 -41 29.5 -71t70.5 -30t71 30t30 71t-29 70.5t-69 29.5q-43 0 -73 -29.5t-30 -70.5z" />
<glyph unicode="&#xe6;" horiz-adv-x="1560" d="M43 219q0 111 69.5 180.5t217.5 110.5q35 10 58.5 16t51 11.5t67.5 11.5t107 18q20 2 32.5 4t21 4.5t15.5 3.5t19 3l19 71q6 29 10 55.5t4 47.5q0 53 -44 81.5t-122 28.5q-94 0 -150.5 -35.5t-86.5 -113.5h-139q90 272 385 272q221 0 270 -145q72 78 147.5 112.5 t171.5 34.5q147 0 232.5 -92t85.5 -252q0 -96 -25 -178h-647q-8 -35 -11 -57.5t-3 -51.5q0 -123 56 -191.5t161 -68.5q92 0 151.5 47.5t110.5 157.5l139 -6q-115 -322 -411 -322q-233 0 -312 197q-78 -100 -170 -147t-209 -47q-129 0 -200.5 63t-71.5 176zM188 233 q0 -61 41 -97t113 -36q66 0 126 31t105 86q29 37 50.5 87t40.5 124l12 43q-43 -6 -88 -13t-88 -14.5t-80 -16.5t-64 -17q-88 -29 -128 -70t-40 -107zM842 582h499q4 25 5.5 39t1.5 30q0 104 -50.5 160.5t-142.5 56.5q-102 0 -181 -72.5t-132 -213.5z" />
<glyph unicode="&#xe7;" horiz-adv-x="948" d="M82 350q0 135 47 264t133 224q141 154 328 153q135 0 213 -74.5t78 -203.5v-27q0 -14 -2 -33h-138q2 16 3 30.5t1 23.5q0 76 -43 118.5t-118 42.5q-154 0 -260 -178q-45 -76 -71 -167t-26 -177q0 -115 54.5 -180.5t150.5 -65.5t157.5 56.5t98.5 175.5h143 q-41 -166 -140 -257t-245 -95l-57 -84q123 -31 123 -134q0 -74 -59.5 -123t-151.5 -49q-39 0 -68.5 7.5t-72.5 25.5l18 72q35 -12 56.5 -16.5t44.5 -4.5q49 0 80.5 28t31.5 71q0 78 -125 80l90 131q-137 29 -205.5 120.5t-68.5 245.5z" />
<glyph unicode="&#xe8;" horiz-adv-x="989" d="M82 348q0 135 49 267.5t135 224.5q139 152 330 151q152 0 237 -91t85 -253q0 -49 -6.5 -92t-18.5 -86h-649q-6 -35 -9.5 -58.5t-3.5 -50.5q0 -125 56.5 -192.5t158.5 -67.5q92 0 152.5 47.5t112.5 157.5l137 -6q-115 -322 -418 -322q-164 0 -256 97.5t-92 273.5zM274 582 h498q8 39 8 67q0 104 -50 161.5t-144 57.5q-102 0 -181.5 -72.5t-130.5 -213.5zM438 1389h176l138 -265h-113z" />
<glyph unicode="&#xe9;" horiz-adv-x="989" d="M82 348q0 135 49 267.5t135 224.5q139 152 330 151q152 0 237 -91t85 -253q0 -49 -6.5 -92t-18.5 -86h-649q-6 -35 -9.5 -58.5t-3.5 -50.5q0 -125 56.5 -192.5t158.5 -67.5q92 0 152.5 47.5t112.5 157.5l137 -6q-115 -322 -418 -322q-164 0 -256 97.5t-92 273.5zM274 582 h498q8 39 8 67q0 104 -50 161.5t-144 57.5q-102 0 -181.5 -72.5t-130.5 -213.5zM535 1130l256 252h219l-355 -252h-120z" />
<glyph unicode="&#xea;" horiz-adv-x="989" d="M82 348q0 135 49 267.5t135 224.5q139 152 330 151q152 0 237 -91t85 -253q0 -49 -6.5 -92t-18.5 -86h-649q-6 -35 -9.5 -58.5t-3.5 -50.5q0 -125 56.5 -192.5t158.5 -67.5q92 0 152.5 47.5t112.5 157.5l137 -6q-115 -322 -418 -322q-164 0 -256 97.5t-92 273.5zM274 582 h498q8 39 8 67q0 104 -50 161.5t-144 57.5q-102 0 -181.5 -72.5t-130.5 -213.5zM334 1122l295 269h151l152 -269h-121l-117 174l-231 -174h-129z" />
<glyph unicode="&#xeb;" horiz-adv-x="989" d="M82 348q0 135 49 267.5t135 224.5q139 152 330 151q152 0 237 -91t85 -253q0 -49 -6.5 -92t-18.5 -86h-649q-6 -35 -9.5 -58.5t-3.5 -50.5q0 -125 56.5 -192.5t158.5 -67.5q92 0 152.5 47.5t112.5 157.5l137 -6q-115 -322 -418 -322q-164 0 -256 97.5t-92 273.5zM274 582 h498q8 39 8 67q0 104 -50 161.5t-144 57.5q-102 0 -181.5 -72.5t-130.5 -213.5zM391 1231q0 47 36 83t83 36q39 0 62.5 -23.5t23.5 -60.5q0 -51 -35 -86t-82 -35q-39 0 -63.5 23.5t-24.5 62.5zM756 1231q0 47 35.5 83t85.5 36q39 0 62.5 -22.5t23.5 -61.5q0 -51 -35 -86 t-82 -35q-41 0 -65.5 23.5t-24.5 62.5z" />
<glyph unicode="&#xec;" horiz-adv-x="440" d="M31 0l241 969h148l-242 -969h-147zM168 1389h164l129 -265h-107z" />
<glyph unicode="&#xed;" horiz-adv-x="440" d="M31 0l241 969h148l-242 -969h-147zM281 1130l215 252h204l-305 -252h-114z" />
<glyph unicode="&#xee;" horiz-adv-x="440" d="M31 0l241 969h148l-242 -969h-147zM125 1122l248 269h149l107 -269h-117l-74 174l-190 -174h-123z" />
<glyph unicode="&#xef;" horiz-adv-x="440" d="M31 0l241 969h148l-242 -969h-147zM170 1231q0 47 36 83t83 36q39 0 62.5 -23.5t23.5 -60.5q0 -51 -35 -86t-82 -35q-39 0 -63.5 23.5t-24.5 62.5zM451 1231q0 47 35.5 83t82.5 36q39 0 62.5 -23.5t23.5 -60.5q0 -51 -34.5 -86t-81.5 -35q-39 0 -63.5 23.5t-24.5 62.5z " />
<glyph unicode="&#xf0;" horiz-adv-x="1013" d="M82 352q0 129 49 260t133 226q61 70 150.5 108.5t187.5 38.5q72 0 116 -23.5t85 -82.5q-8 51 -15.5 85.5t-13.5 64.5t-14 55.5t-19 58.5l-157 -60l-41 86l164 64l-11 31l-30 57l-13 29l95 43q6 -8 12 -14.5t10 -14.5l25 -41l10 -20q4 -10 16 -27l172 70l35 -93l-174 -67 l12 -33q23 -66 39.5 -123t26.5 -111.5t14 -110.5t4 -120q0 -129 -20.5 -226t-65.5 -188q-76 -145 -186.5 -221t-247.5 -76q-162 0 -255 100.5t-93 274.5zM229 346q0 -117 55.5 -182.5t151.5 -65.5q154 0 260 170q47 76 75 171.5t28 181.5q0 115 -54.5 181t-150.5 66 q-160 0 -264 -174q-47 -74 -74 -168t-27 -180z" />
<glyph unicode="&#xf1;" horiz-adv-x="1007" d="M31 0l159 639q18 76 29.5 122t17 76.5t7.5 52t2 46.5v12q0 8 -2 21h137q2 -12 2 -23v-16q0 -23 -3 -46.5t-13 -58.5q123 164 307 164q113 0 181.5 -59.5t68.5 -157.5q0 -35 -8.5 -84t-30.5 -135l-137 -553h-138l135 549q18 70 25.5 110.5t7.5 71.5q0 63 -40 97t-111 34 q-242 0 -336 -370l-123 -492h-137zM352 1161q92 207 217 207q29 0 56.5 -12.5t64.5 -40.5q41 -35 62.5 -46.5t44.5 -11.5q63 0 112 117l76 -20q-80 -211 -213 -211q-31 0 -59.5 12t-73.5 47q-39 29 -60.5 40t-41.5 11q-61 0 -111 -110z" />
<glyph unicode="&#xf2;" horiz-adv-x="1013" d="M80 350q0 70 14.5 140.5t41 138t64.5 127t83 104.5q131 131 319 131q158 0 249 -100t91 -275q0 -131 -48 -262t-134 -225q-137 -152 -330 -152q-164 0 -257 99.5t-93 273.5zM227 346q0 -117 55.5 -182.5t151.5 -65.5q154 0 260 170q47 76 75 171.5t28 181.5 q0 117 -54.5 182t-148.5 65q-162 0 -266 -174q-47 -72 -74 -168t-27 -180zM457 1389h176l137 -265h-113z" />
<glyph unicode="&#xf3;" horiz-adv-x="1013" d="M80 350q0 70 14.5 140.5t41 138t64.5 127t83 104.5q131 131 319 131q158 0 249 -100t91 -275q0 -131 -48 -262t-134 -225q-137 -152 -330 -152q-164 0 -257 99.5t-93 273.5zM227 346q0 -117 55.5 -182.5t151.5 -65.5q154 0 260 170q47 76 75 171.5t28 181.5 q0 117 -54.5 182t-148.5 65q-162 0 -266 -174q-47 -72 -74 -168t-27 -180zM545 1130l256 252h219l-354 -252h-121z" />
<glyph unicode="&#xf4;" horiz-adv-x="1013" d="M80 350q0 70 14.5 140.5t41 138t64.5 127t83 104.5q131 131 319 131q158 0 249 -100t91 -275q0 -131 -48 -262t-134 -225q-137 -152 -330 -152q-164 0 -257 99.5t-93 273.5zM227 346q0 -117 55.5 -182.5t151.5 -65.5q154 0 260 170q47 76 75 171.5t28 181.5 q0 117 -54.5 182t-148.5 65q-162 0 -266 -174q-47 -72 -74 -168t-27 -180zM360 1122l295 269h152l151 -269h-120l-117 174l-232 -174h-129z" />
<glyph unicode="&#xf5;" horiz-adv-x="1013" d="M80 350q0 70 14.5 140.5t41 138t64.5 127t83 104.5q131 131 319 131q158 0 249 -100t91 -275q0 -131 -48 -262t-134 -225q-137 -152 -330 -152q-164 0 -257 99.5t-93 273.5zM227 346q0 -117 55.5 -182.5t151.5 -65.5q154 0 260 170q47 76 75 171.5t28 181.5 q0 117 -54.5 182t-148.5 65q-162 0 -266 -174q-47 -72 -74 -168t-27 -180zM371 1161q92 207 217 207q29 0 56.5 -12.5t64.5 -40.5q41 -35 62.5 -46.5t43.5 -11.5q63 0 113 117l76 -20q-80 -211 -213 -211q-31 0 -60 12t-74 47q-39 29 -60.5 40t-41.5 11q-61 0 -111 -110z " />
<glyph unicode="&#xf6;" horiz-adv-x="1013" d="M80 350q0 70 14.5 140.5t41 138t64.5 127t83 104.5q131 131 319 131q158 0 249 -100t91 -275q0 -131 -48 -262t-134 -225q-137 -152 -330 -152q-164 0 -257 99.5t-93 273.5zM227 346q0 -117 55.5 -182.5t151.5 -65.5q154 0 260 170q47 76 75 171.5t28 181.5 q0 117 -54.5 182t-148.5 65q-162 0 -266 -174q-47 -72 -74 -168t-27 -180zM418 1231q0 47 35.5 83t83.5 36q39 0 62.5 -23.5t23.5 -60.5q0 -51 -35 -86t-82 -35q-39 0 -63.5 23.5t-24.5 62.5zM782 1231q0 47 36 83t85 36q39 0 62.5 -22.5t23.5 -61.5q0 -51 -34.5 -86 t-82.5 -35q-41 0 -65.5 23.5t-24.5 62.5z" />
<glyph unicode="&#xf7;" d="M152 631v110h874v-110h-874zM489 397q0 43 30 72t71 29t69.5 -30t28.5 -71t-29.5 -69.5t-70.5 -28.5t-70 28.5t-29 69.5zM489 967q0 43 30 71.5t71 28.5t69.5 -29.5t28.5 -70.5t-29.5 -70t-70.5 -29t-70 29t-29 70z" />
<glyph unicode="&#xf8;" horiz-adv-x="1013" d="M-63 0l180 176q-31 70 -31 178q0 68 14.5 138.5t41 137t64.5 126t83 104.5q131 131 313 131q162 0 254 -98l80 76h129l-156 -152q39 -86 39 -207q0 -63 -13 -128.5t-37 -129t-57.5 -121t-74.5 -102.5q-137 -152 -332 -152q-43 0 -77.5 6.5t-66.5 19.5t-62.5 34.5 t-65.5 54.5l-99 -92h-126zM233 315q0 -12 5 -32l507 518q-29 37 -61.5 52t-83.5 15q-162 0 -266 -172q-47 -76 -74 -171t-27 -181v-29zM272 188q57 -90 166 -90q158 0 260 170q47 74 76 169t29 175q0 72 -17 105z" />
<glyph unicode="&#xf9;" horiz-adv-x="991" d="M96 209q0 33 8.5 85t22.5 105l141 570h138l-146 -590q-10 -35 -16 -75t-6 -62q0 -61 42 -97t115 -36q127 0 215 116q53 68 86 205l135 539h138l-168 -674q-18 -76 -28.5 -120t-15.5 -69.5t-6 -40t-1 -32.5v-33h-136q-2 10 -2 16v11q0 43 15 102q-57 -78 -123 -113.5 t-152 -35.5q-115 0 -185.5 62.5t-70.5 166.5zM442 1389h176l138 -265h-113z" />
<glyph unicode="&#xfa;" horiz-adv-x="991" d="M96 209q0 33 8.5 85t22.5 105l141 570h138l-146 -590q-10 -35 -16 -75t-6 -62q0 -61 42 -97t115 -36q127 0 215 116q53 68 86 205l135 539h138l-168 -674q-18 -76 -28.5 -120t-15.5 -69.5t-6 -40t-1 -32.5v-33h-136q-2 10 -2 16v11q0 43 15 102q-57 -78 -123 -113.5 t-152 -35.5q-115 0 -185.5 62.5t-70.5 166.5zM532 1130l256 252h220l-355 -252h-121z" />
<glyph unicode="&#xfb;" horiz-adv-x="991" d="M96 209q0 33 8.5 85t22.5 105l141 570h138l-146 -590q-10 -35 -16 -75t-6 -62q0 -61 42 -97t115 -36q127 0 215 116q53 68 86 205l135 539h138l-168 -674q-18 -76 -28.5 -120t-15.5 -69.5t-6 -40t-1 -32.5v-33h-136q-2 10 -2 16v11q0 43 15 102q-57 -78 -123 -113.5 t-152 -35.5q-115 0 -185.5 62.5t-70.5 166.5zM346 1122l295 269h152l151 -269h-121l-116 174l-232 -174h-129z" />
<glyph unicode="&#xfc;" horiz-adv-x="991" d="M96 209q0 33 8.5 85t22.5 105l141 570h138l-146 -590q-10 -35 -16 -75t-6 -62q0 -61 42 -97t115 -36q127 0 215 116q53 68 86 205l135 539h138l-168 -674q-18 -76 -28.5 -120t-15.5 -69.5t-6 -40t-1 -32.5v-33h-136q-2 10 -2 16v11q0 43 15 102q-57 -78 -123 -113.5 t-152 -35.5q-115 0 -185.5 62.5t-70.5 166.5zM403 1231q0 47 36 83t83 36q39 0 62.5 -23.5t23.5 -60.5q0 -51 -34.5 -86t-81.5 -35q-39 0 -64 23.5t-25 62.5zM768 1231q0 47 36 83t85 36q39 0 62.5 -22.5t23.5 -61.5q0 -51 -35 -86t-82 -35q-41 0 -65.5 23.5t-24.5 62.5z " />
<glyph unicode="&#xfd;" horiz-adv-x="882" d="M-156 -408l35 138q68 0 117 9t90 37.5t80 80t88 133.5l-88 979h145l49 -858l476 858h149l-520 -899q-84 -145 -143.5 -228.5t-114.5 -132.5q-129 -117 -324 -117h-39zM467 1130l256 252h219l-354 -252h-121z" />
<glyph unicode="&#xfe;" horiz-adv-x="1011" d="M-68 -395l437 1751h141l-127 -508q59 82 119.5 115.5t144.5 33.5q139 0 219 -94t80 -258q0 -135 -48 -270t-132 -234q-133 -154 -309 -153q-92 0 -150.5 39t-99.5 127l-137 -549h-138zM270 348q0 -111 49.5 -173t137.5 -62q133 0 233 161q51 78 80 177.5t29 191.5 q0 104 -49.5 166.5t-135.5 62.5q-147 0 -254 -194q-39 -76 -64.5 -168t-25.5 -162z" />
<glyph unicode="&#xff;" horiz-adv-x="882" d="M-156 -408l35 138q68 0 117 9t90 37.5t80 80t88 133.5l-88 979h145l49 -858l476 858h149l-520 -899q-84 -145 -143.5 -228.5t-114.5 -132.5q-129 -117 -324 -117h-39zM346 1231q0 47 36 83t83 36q39 0 62.5 -23.5t23.5 -60.5q0 -51 -35 -86t-82 -35q-39 0 -63.5 23.5 t-24.5 62.5zM711 1231q0 47 35.5 83t84.5 36q39 0 63 -22.5t24 -61.5q0 -51 -35 -86t-82 -35q-41 0 -65.5 23.5t-24.5 62.5z" />
<glyph unicode="&#x152;" horiz-adv-x="1884" d="M133 473q0 96 17.5 194.5t50 189.5t79 174t103.5 149q186 213 446 213q281 0 375 -234l51 207h725l-32 -133h-576l-115 -459h541l-33 -133h-540l-127 -508h612l-35 -133h-760l35 131q-90 -84 -179 -121t-200 -37q-207 0 -322.5 132t-115.5 368zM293 465 q0 -166 76.5 -262.5t212.5 -96.5q231 0 387 269q33 55 59.5 120.5t45 134t28.5 137.5t10 130q0 166 -77 264.5t-208 98.5q-219 0 -370 -236q-37 -59 -68 -128t-52.5 -141.5t-32.5 -146t-11 -143.5z" />
<glyph unicode="&#x153;" horiz-adv-x="1675" d="M80 350q0 141 56.5 279.5t148.5 230.5q135 131 313 131q117 0 195.5 -55t113.5 -162q78 115 167 166t206 51q152 0 237 -91t85 -251q0 -94 -25 -180h-649q-6 -35 -9.5 -57.5t-3.5 -51.5q0 -125 56.5 -192.5t158.5 -67.5q92 0 151.5 47.5t113.5 157.5l137 -6 q-55 -158 -160.5 -240t-253.5 -82q-121 0 -196.5 51.5t-118.5 164.5q-86 -115 -173 -165.5t-202 -50.5q-162 0 -255 99.5t-93 273.5zM227 346q0 -115 55.5 -181.5t151.5 -66.5q154 0 260 170q47 78 75 172.5t28 182.5q0 113 -55.5 179t-147.5 66q-162 0 -266 -174 q-47 -74 -74 -168t-27 -180zM958 582h500q4 25 5 40t1 31q0 102 -51 158.5t-143 56.5q-100 0 -180.5 -72.5t-131.5 -213.5z" />
<glyph unicode="&#x178;" horiz-adv-x="1017" d="M250 1366h164l149 -659l477 659h181l-613 -793l-139 -573h-150l146 573zM487 1614q0 53 38 91t91 38q43 0 69 -25.5t26 -66.5q0 -53 -37 -92t-90 -39q-43 0 -70 26.5t-27 67.5zM885 1614q0 53 38 91t91 38q43 0 68.5 -25.5t25.5 -66.5q0 -53 -37 -92t-90 -39 q-43 0 -69.5 26.5t-26.5 67.5z" />
<glyph unicode="&#x2c6;" horiz-adv-x="1024" d="M377 1122l295 269h151l152 -269h-121l-117 174l-231 -174h-129z" />
<glyph unicode="&#x2dc;" horiz-adv-x="1024" d="M393 1161q92 207 217 207q29 0 56.5 -12.5t64.5 -40.5q41 -35 62.5 -46.5t44.5 -11.5q63 0 112 117l76 -20q-80 -211 -213 -211q-31 0 -59.5 12t-73.5 47q-39 29 -60.5 40t-41.5 11q-61 0 -111 -110z" />
<glyph unicode="&#x2000;" horiz-adv-x="917" />
<glyph unicode="&#x2001;" horiz-adv-x="1837" />
<glyph unicode="&#x2002;" horiz-adv-x="917" />
<glyph unicode="&#x2003;" horiz-adv-x="1837" />
<glyph unicode="&#x2004;" horiz-adv-x="612" />
<glyph unicode="&#x2005;" horiz-adv-x="458" />
<glyph unicode="&#x2006;" horiz-adv-x="305" />
<glyph unicode="&#x2007;" horiz-adv-x="305" />
<glyph unicode="&#x2008;" horiz-adv-x="229" />
<glyph unicode="&#x2009;" horiz-adv-x="366" />
<glyph unicode="&#x200a;" horiz-adv-x="100" />
<glyph unicode="&#x2010;" horiz-adv-x="544" d="M-2 459l29 112h544l-28 -112h-545z" />
<glyph unicode="&#x2011;" horiz-adv-x="544" d="M-2 459l29 112h544l-28 -112h-545z" />
<glyph unicode="&#x2012;" horiz-adv-x="544" d="M-2 459l29 112h544l-28 -112h-545z" />
<glyph unicode="&#x2013;" d="M176 459l29 112h713l-27 -112h-715z" />
<glyph unicode="&#x2014;" horiz-adv-x="1142" d="M-2 459l29 112h1140l-26 -112h-1143z" />
<glyph unicode="&#x2018;" horiz-adv-x="487" d="M274 1040q0 74 62.5 167t167.5 177h117q-33 -23 -66 -52t-60.5 -62t-49 -63.5t-31.5 -57.5h18q33 0 55.5 -22.5t22.5 -55.5q0 -51 -41 -92t-94 -41q-45 0 -73 28.5t-28 73.5z" />
<glyph unicode="&#x2019;" horiz-adv-x="487" d="M215 946q33 23 65.5 52.5t60.5 61.5t49.5 63.5t31.5 58.5h-19q-33 0 -55 22.5t-22 55.5q0 53 41 93t94 40q45 0 72.5 -29t27.5 -74q0 -74 -61.5 -166t-167.5 -178h-117z" />
<glyph unicode="&#x201a;" horiz-adv-x="487" d="M-80 -242q76 57 131 121t76 117q-8 -2 -18 -2q-33 0 -55.5 22.5t-22.5 55.5q0 51 41 92t94 41q45 0 72.5 -29t27.5 -74q0 -74 -58 -160.5t-171 -183.5h-117z" />
<glyph unicode="&#x201c;" horiz-adv-x="833" d="M270 1047q0 74 60.5 166t167.5 178h118q-33 -23 -65.5 -52.5t-60 -62.5t-49 -64.5t-31.5 -56.5q6 2 10 2h10q31 0 53.5 -22.5t22.5 -57.5q0 -51 -41 -92t-94 -41q-45 0 -73 29t-28 74zM616 1047q0 74 59.5 165t168.5 179h119q-33 -23 -66 -52.5t-60.5 -61.5t-49 -64.5 t-31.5 -57.5q6 2 10 2h10q31 0 53.5 -22.5t22.5 -57.5q0 -51 -41 -92t-94 -41q-45 0 -73 29t-28 74z" />
<glyph unicode="&#x201d;" horiz-adv-x="833" d="M215 946q33 23 65.5 52.5t60.5 61.5t49.5 63.5t31.5 58.5h-19q-33 0 -55 22.5t-22 55.5q0 53 41 93t94 40q45 0 72.5 -29t27.5 -74q0 -74 -61.5 -166t-167.5 -178h-117zM561 946q33 23 65.5 52.5t60.5 61.5t49.5 63.5t31.5 58.5h-18q-33 0 -55.5 22.5t-22.5 55.5 q0 51 41 92t94 41q45 0 72.5 -29t27.5 -74q0 -74 -60.5 -166t-168.5 -178h-117z" />
<glyph unicode="&#x201e;" horiz-adv-x="833" d="M-80 -242q76 57 131 121t76 117q-8 -2 -18 -2q-33 0 -55.5 22.5t-22.5 55.5q0 51 41 92t94 41q45 0 72.5 -29t27.5 -74q0 -74 -58 -160.5t-171 -183.5h-117zM266 -242q74 55 130.5 120t76.5 118q-8 -2 -18 -2q-33 0 -55.5 22.5t-22.5 55.5q0 51 41 92t94 41 q45 0 72.5 -29t27.5 -74q0 -150 -229 -344h-117z" />
<glyph unicode="&#x2022;" horiz-adv-x="1366" d="M422 692q0 59 22.5 111.5t61.5 90.5t91 60.5t114 22.5q57 0 107 -22.5t88 -61.5t60.5 -90t22.5 -109q0 -59 -22.5 -111.5t-60.5 -90t-90 -60t-109 -22.5q-59 0 -110.5 22.5t-90.5 60t-61.5 89t-22.5 110.5z" />
<glyph unicode="&#x2026;" horiz-adv-x="1550" d="M47 72q0 57 41 99t96 42q41 0 69 -27.5t28 -70.5q0 -27 -11.5 -51.5t-30 -44t-42 -31t-50.5 -11.5q-43 0 -71.5 27t-28.5 68zM565 72q0 57 41 99t96 42q41 0 69 -27.5t28 -70.5q0 -27 -11.5 -51.5t-30 -44t-42 -31t-49.5 -11.5q-43 0 -72 27t-29 68zM1083 72q0 57 41 99 t97 42q41 0 68.5 -27.5t27.5 -70.5q0 -27 -11.5 -51.5t-30 -44t-42 -31t-49.5 -11.5q-43 0 -72 27t-29 68z" />
<glyph unicode="&#x202f;" horiz-adv-x="366" />
<glyph unicode="&#x2039;" horiz-adv-x="471" d="M84 500l297 469h115l-279 -480l27 -489h-105z" />
<glyph unicode="&#x203a;" horiz-adv-x="471" d="M-14 0l278 479l-26 490h102l57 -500l-299 -469h-112z" />
<glyph unicode="&#x205f;" horiz-adv-x="458" />
<glyph unicode="&#x20ac;" d="M29 510l71 106h107q4 27 6 39.5t4 22.5q2 8 5 21.5t14 45.5h-148l72 107h110q193 522 619 522q117 0 205 -39t170 -125l-101 -143q-55 96 -123.5 138t-169.5 42q-143 0 -250.5 -97t-189.5 -298h606l-75 -107h-568q-10 -31 -20.5 -72.5t-10.5 -56.5h508l-75 -106h-447 q-4 -25 -4 -41v-31q0 -160 82 -246t236 -86q123 0 215 51.5t184 168.5l-51 -217q-84 -70 -172 -102t-201 -32q-219 0 -334 118t-115 341v31q0 16 5 45h-164z" />
<glyph unicode="&#x2122;" horiz-adv-x="1437" d="M209 1276l24 90h523l-27 -90h-207l-172 -688h-100l170 688h-211zM655 588l193 778h147l54 -657l376 657h152l-195 -778h-98l164 649l-373 -649h-108l-56 649l-157 -649h-99z" />
<glyph unicode="&#xe000;" horiz-adv-x="970" d="M0 970h970v-970h-970v970z" />
<glyph unicode="&#xfb01;" horiz-adv-x="1060" d="M68 0l213 852h-134l29 117h135l19 80q12 51 23.5 89t21.5 65.5t20.5 49t22.5 39.5q74 104 217 105q41 0 82 -8.5t90 -28.5l-33 -133q-39 23 -69.5 33t-63.5 10q-35 0 -60.5 -10.5t-46 -37t-37 -71.5t-34.5 -115l-17 -67h238l-29 -117h-231l-213 -852h-143zM651 0l242 969 h147l-241 -969h-148zM940 1255q0 51 37 90t84 39q37 0 60.5 -23.5t23.5 -60.5q0 -49 -36 -86.5t-83 -37.5q-37 0 -61.5 22t-24.5 57z" />
<glyph unicode="&#xfb02;" horiz-adv-x="1060" d="M68 0l213 852h-134l29 117h135l19 80q12 51 23.5 89t21.5 65.5t20.5 49t22.5 39.5q74 104 217 105q41 0 82 -8.5t90 -28.5l-33 -133q-39 23 -69.5 33t-63.5 10q-35 0 -60.5 -10.5t-46 -37t-37 -71.5t-34.5 -115l-17 -67h238l-29 -117h-231l-213 -852h-143zM651 0 l342 1372h148l-342 -1372h-148z" />
<glyph unicode="&#xfb03;" horiz-adv-x="1607" d="M1198 0l241 969h148l-242 -969h-147zM1484 1255q0 51 37 90t84 39q37 0 60.5 -23.5t23.5 -60.5q0 -49 -35.5 -86.5t-83.5 -37.5q-37 0 -61.5 22t-24.5 57zM652 0l213 852h-134l29 117h135l19 80q12 51 23.5 89t21.5 65.5t20.5 49t22.5 39.5q74 104 217 105q41 0 82 -8.5 t90 -28.5l-33 -133q-39 23 -69.5 33t-63.5 10q-35 0 -60.5 -10.5t-46 -37t-37 -71.5t-34.5 -115l-17 -67h238l-29 -117h-231l-213 -852h-143zM68 0l213 852h-134l29 117h135l19 80q12 51 23.5 89t21.5 65.5t20.5 49t22.5 39.5q74 104 217 105q41 0 82 -8.5t90 -28.5 l-33 -133q-39 23 -69.5 33t-63.5 10q-35 0 -60.5 -10.5t-46 -37t-37 -71.5t-34.5 -115l-17 -67h238l-29 -117h-231l-213 -852h-143z" />
<glyph unicode="&#xfb04;" horiz-adv-x="1607" d="M1198 0l342 1372h147l-342 -1372h-147zM652 0l213 852h-134l29 117h135l19 80q12 51 23.5 89t21.5 65.5t20.5 49t22.5 39.5q74 104 217 105q41 0 82 -8.5t90 -28.5l-33 -133q-39 23 -69.5 33t-63.5 10q-35 0 -60.5 -10.5t-46 -37t-37 -71.5t-34.5 -115l-17 -67h238 l-29 -117h-231l-213 -852h-143zM68 0l213 852h-134l29 117h135l19 80q12 51 23.5 89t21.5 65.5t20.5 49t22.5 39.5q74 104 217 105q41 0 82 -8.5t90 -28.5l-33 -133q-39 23 -69.5 33t-63.5 10q-35 0 -60.5 -10.5t-46 -37t-37 -71.5t-34.5 -115l-17 -67h238l-29 -117h-231 l-213 -852h-143z" />
</font>
</defs>
</svg>
